<svg width="135" height="36" viewBox="0 0 135 36" fill="none" xmlns="http://www.w3.org/2000/svg">
<g clip-path="url(#clip0)">
<path fill-rule="evenodd" clip-rule="evenodd" d="M40.1841 26.6209V10.3113H42.304L52.3802 23.4367V10.3113H54.3954V26.6209H52.2755L42.1993 13.3661V26.6209H40.1841ZM70.8052 25.9737C69.4704 26.4656 68.0309 26.7245 66.513 26.7245C60.5458 26.7245 57.5622 23.9027 57.5622 18.2331C57.5622 12.8743 60.4411 10.1819 66.1989 10.1819C67.8477 10.1819 69.3919 10.4149 70.8052 10.855V12.6672C69.3919 12.1235 67.9263 11.8646 66.4345 11.8646C61.9329 11.8646 59.6821 13.9875 59.6821 18.1814C59.6821 22.7118 61.9067 24.9641 66.3298 24.9641C67.0364 24.9641 67.8216 24.8605 68.6852 24.6793V19.2169H70.8052V25.9737ZM74.2075 20.3301V10.3113H76.3274V20.3301C76.3274 23.4626 77.8977 25.0417 81.0645 25.0417C84.2052 25.0417 85.8016 23.4626 85.8016 20.3301V10.3113H87.9216V20.3301C87.9216 24.6016 85.6446 26.7504 81.0645 26.7504C76.4845 26.7504 74.2075 24.6016 74.2075 20.3301ZM93.8364 10.3113V24.9123H102.473V26.6209H91.7165V10.3113H93.8364ZM105.535 26.6209H103.311L111.502 8.1626L119.694 26.6209H117.339L115.219 21.495H109.775L110.351 19.7864H114.512L111.424 12.4083L105.535 26.6209ZM121.971 26.6209V10.3113H129.011C132.152 10.3113 133.722 11.6057 133.722 14.2204C133.722 16.3433 132.178 17.9225 129.116 18.9321L134.769 26.6209H131.969L126.734 19.2945V17.9225C129.875 17.4306 131.472 16.2397 131.472 14.324C131.472 12.8225 130.608 12.0717 128.854 12.0717H124.143V26.6209H121.971Z" fill="#5E5E66"/>
<path fill-rule="evenodd" clip-rule="evenodd" d="M0.769531 5.96211L17.6504 0.0078125L34.9762 5.85856L32.1758 27.9412L17.6504 35.8889L3.36055 28.0448L0.769531 5.96211Z" fill="#5E5E66"/>
<path fill-rule="evenodd" clip-rule="evenodd" d="M34.9762 5.85856L17.6504 0.0078125V35.8889L32.1758 27.9412L34.9762 5.85856Z" fill="#5E5E66"/>
<path fill-rule="evenodd" clip-rule="evenodd" d="M17.6769 4.20178L7.15576 27.3459L11.0815 27.2682L13.2015 22.0388H22.5972L24.9003 27.32L28.6429 27.3977L17.6769 4.20178ZM17.703 11.6317L21.2624 18.984H14.5886L17.703 11.6317Z" fill="white"/>
</g>
<defs>
<clipPath id="clip0">
<rect width="134" height="36" fill="white" transform="translate(0.769531)"/>
</clipPath>
</defs>
</svg>
