<svg width="50" height="50" viewBox="0 0 50 50" fill="none" xmlns="http://www.w3.org/2000/svg">
<g clip-path="url(#clip0)">
<path d="M48.9225 22.5423L47.2668 22.3332L48.291 21.0168C48.6707 20.5265 48.6275 19.8303 48.1901 19.3909L46.44 17.6408C46.001 17.203 45.3048 17.1598 44.8149 17.5399L43.5002 18.5665L43.2926 16.9108C43.2149 16.2948 42.6908 15.8329 42.0699 15.8333H39.5968C39.2045 15.8382 38.8387 16.0323 38.6141 16.3542L37.5216 14.5333C37.7905 14.1036 37.7649 13.5522 37.4577 13.149L36.4335 11.8335L38.0892 11.626C38.7052 11.5483 39.1671 11.0242 39.1667 10.4032V7.93009C39.1663 7.30997 38.7044 6.7867 38.0892 6.70898L36.4335 6.49983L37.4577 5.18351C37.8373 4.69319 37.7942 3.99699 37.3568 3.55753L35.6067 1.80745C35.1676 1.37004 34.4714 1.3269 33.9815 1.70654L32.6668 2.73315L32.4593 1.07747C32.3816 0.461426 31.8575 -0.000406632 31.2366 2.68667e-07H28.7634C28.1433 0.000407169 27.62 0.46224 27.5423 1.07747L27.3332 2.73315L26.0168 1.70898C25.5265 1.32935 24.8303 1.37248 24.3909 1.8099L22.6408 3.55998C22.2034 3.99902 22.1602 4.69523 22.5399 5.18514L23.5665 6.49983L21.9108 6.70735C21.2948 6.78507 20.8329 7.30916 20.8333 7.93009V8.6027L13.3582 11.5967L11.9576 10.1957C11.3631 9.60123 10.4187 9.54264 9.75504 10.059L6.21419 12.8133C6.01685 12.7254 5.8252 12.6457 5.63924 12.5732L5.08341 8.13435C4.98291 7.29858 4.2749 6.6691 3.43343 6.66666H1.66667V2.68667e-07H0V50H1.66667V43.3333H3.43343C4.27368 43.3313 4.98088 42.7038 5.08341 41.8701L5.63761 37.4267C5.82357 37.3543 6.01522 37.2746 6.21256 37.1867L9.74569 39.9365C10.4138 40.4561 11.3639 40.3971 11.9625 39.799L13.6816 38.0835L20.8333 41.1417V42.0666C20.8333 42.6904 21.298 43.2165 21.9165 43.2942L23.5673 43.4973L22.5484 44.8091C22.1627 45.2986 22.205 45.9997 22.6465 46.4392L24.3966 48.1893C24.8348 48.6291 25.5326 48.6731 26.0225 48.2918L27.3332 47.2684L27.5374 48.9201C27.6164 49.5381 28.1433 50.0012 28.7667 50H31.2333C31.8571 50 32.3832 49.5353 32.4609 48.9168L32.664 47.266L33.9758 48.2849C34.4657 48.6698 35.166 48.6279 35.6059 48.1868L37.356 46.4367C37.7966 45.9989 37.8406 45.3007 37.4585 44.8108L36.4351 43.5001L38.0868 43.2959C38.7048 43.2169 39.1679 42.69 39.1667 42.0666V39.6C39.1663 38.9766 38.702 38.4505 38.0835 38.3732L36.4351 38.1665L37.454 36.855C37.7665 36.4518 37.7934 35.8964 37.5208 35.4651L38.6141 33.6434C38.8379 33.966 39.2037 34.161 39.5968 34.1666H42.0699C42.69 34.1662 43.2133 33.7044 43.291 33.0892L43.5002 31.4335L44.8165 32.4577C45.3068 32.8381 46.0034 32.795 46.4425 32.3568L48.1925 30.6067C48.63 30.1676 48.6731 29.4714 48.2935 28.9815L47.2668 27.6668L48.9225 27.4593C49.5386 27.3816 50.0004 26.8575 50 26.2366V23.7634C49.9996 23.1433 49.5378 22.62 48.9225 22.5423ZM34.4983 18.3756L32.9842 15.8524L33.984 16.6284C34.4743 17.0089 35.1709 16.9657 35.6099 16.5275L36.3375 15.7991L37.8516 18.3223L36.8518 17.5468C36.3615 17.1671 35.6657 17.2103 35.2258 17.6473L34.4983 18.3756ZM22.5 8.31502L24.4759 8.06518C24.7921 8.0253 25.0578 7.80883 25.1607 7.50732C25.2315 7.30428 25.3149 7.10612 25.411 6.91325C25.5509 6.62719 25.5155 6.28621 25.3198 6.03515L24.0951 4.46492L25.2983 3.26172L26.8717 4.48405C27.1232 4.67977 27.4638 4.71517 27.7498 4.57519C27.9427 4.47916 28.1409 4.39575 28.3443 4.32495C28.6458 4.222 28.8619 3.9563 28.9018 3.64014L29.1484 1.66667H30.8516L31.1015 3.64258C31.1414 3.95874 31.3578 4.22444 31.6593 4.32739C31.8624 4.39819 32.061 4.48161 32.2534 4.57763C32.5395 4.71761 32.8805 4.68221 33.1315 4.48649L34.705 3.26416L35.9082 4.46736L34.6826 6.03841C34.4869 6.28987 34.4515 6.63045 34.5915 6.9165C34.6875 7.10937 34.7709 7.30753 34.8417 7.51098C34.9447 7.8125 35.2104 8.02856 35.5265 8.06844L37.5024 8.31827V10.0216L35.5265 10.2718C35.2104 10.3113 34.9447 10.5277 34.8417 10.8293C34.7709 11.0323 34.6875 11.2309 34.5915 11.4233C34.4515 11.7094 34.4869 12.0504 34.6826 12.3018L35.9049 13.8749L34.7017 15.0785L33.1283 13.8558C32.8784 13.658 32.5374 13.6202 32.2502 13.7581C32.0573 13.8542 31.8591 13.9376 31.6557 14.0084C31.3542 14.1113 31.1381 14.377 31.0982 14.6932L30.8516 16.6667H29.1484L28.8985 14.6907C28.8586 14.3746 28.6422 14.1089 28.3407 14.0059C28.1376 13.9351 27.9395 13.8517 27.7466 13.7557C27.4605 13.6157 27.1195 13.6511 26.8685 13.8468L25.295 15.0692L24.0918 13.866L25.3141 12.2925C25.5098 12.0422 25.5465 11.7029 25.4085 11.4168C25.3125 11.224 25.2291 11.0258 25.1583 10.8223C25.0553 10.5208 24.7896 10.3048 24.4735 10.2649L22.5 10.0183V8.31502ZM1.66667 18.0375C4.80347 18.643 7.06991 21.3887 7.06991 24.5833C7.06991 27.7779 4.80347 30.5237 1.66667 31.1291V18.0375ZM10.7715 38.621L6.8335 35.5591C6.58366 35.3646 6.24512 35.3284 5.95988 35.4659C5.52205 35.6811 5.07039 35.8683 4.60815 36.0258C4.30339 36.1275 4.08447 36.3952 4.045 36.7143L3.43343 41.6666H1.66667V32.8251C5.74748 32.2147 8.7675 28.7097 8.7675 24.5833C8.7675 20.4569 5.74748 16.9519 1.66667 16.3415V8.33333H3.4318L4.04826 13.2833C4.08773 13.6023 4.30705 13.87 4.61182 13.9718C5.07365 14.1292 5.52531 14.3164 5.96313 14.5316C6.24837 14.6688 6.58691 14.633 6.83675 14.4385L10.7792 11.3717L14.4535 15.059L11.3924 18.9998C11.1979 19.2497 11.1617 19.5882 11.2992 19.8734C11.5145 20.3113 11.7017 20.7629 11.8591 21.2252C11.9609 21.5299 12.2286 21.7488 12.5476 21.7883L17.5 22.3999V27.5985L12.55 28.2149C12.231 28.2544 11.9633 28.4737 11.8616 28.7785C11.7041 29.2403 11.5169 29.692 11.3017 30.1298C11.1646 30.415 11.2004 30.7536 11.3949 31.0034L14.4617 34.9459L10.7715 38.621ZM15.7715 33.9225L13.0216 30.3817C13.1095 30.1843 13.1893 29.9927 13.2617 29.8067L17.701 29.2533C18.5372 29.152 19.1663 28.4424 19.1667 27.6001V22.3999C19.1646 21.5596 18.5372 20.8524 17.7034 20.7499L13.2601 20.1957C13.1877 20.0102 13.1079 19.8185 13.02 19.6208L15.7699 16.0876C16.2891 15.4195 16.2301 14.4694 15.6323 13.8708L14.6415 12.8809L20.8333 10.3984V10.4032C20.8337 11.0234 21.2956 11.5466 21.9108 11.6243L23.5665 11.8319L22.5423 13.1482C22.1627 13.6385 22.2058 14.3347 22.6432 14.7742L24.3933 16.5242C24.8324 16.9621 25.5286 17.0052 26.0185 16.6252L27.3332 15.6002L27.5407 17.2558C27.6184 17.8719 28.1425 18.3337 28.7634 18.3333H31.2366C31.6288 18.3284 31.9946 18.1343 32.2192 17.8125L33.3118 19.6334C33.0428 20.0631 33.0684 20.6144 33.3756 21.0176L34.3998 22.3332L32.7441 22.5407C32.1281 22.6184 31.6663 23.1425 31.6667 23.7634V26.2366C31.6671 26.8567 32.1289 27.3799 32.7441 27.4577L34.3998 27.6652L33.3756 28.9815C33.0684 29.3852 33.0428 29.9365 33.3118 30.3666L32.2192 32.1867C31.993 31.8648 31.6264 31.6715 31.2333 31.6667H28.7667C28.1429 31.6667 27.6168 32.1313 27.5391 32.7498L27.3332 34.3982L26.0217 33.3793C25.5322 32.9936 24.8315 33.0359 24.3917 33.4774L22.6416 35.2274C22.2009 35.6653 22.157 36.3635 22.5391 36.8534L23.5649 38.1665L21.9132 38.3707C21.3957 38.4411 20.9802 38.833 20.8801 39.3457L14.9516 36.8074L15.6376 36.1218C16.2309 35.5273 16.2895 34.5845 15.7743 33.9217L15.7715 33.9225ZM35.6051 33.4782C35.1668 33.0379 34.469 32.994 33.9791 33.3756L32.9858 34.1492L34.4999 31.6284L35.2275 32.3568C35.6665 32.795 36.3627 32.8381 36.8526 32.4577L37.8524 31.6817L36.3334 34.2057L35.6051 33.4782ZM37.5 39.98V41.6866L35.5225 41.9307C35.1965 41.9718 34.9251 42.2001 34.8291 42.5142C34.7644 42.7124 34.6847 42.9053 34.5907 43.0916C34.4539 43.3764 34.4902 43.7146 34.6842 43.964L35.9058 45.535L34.6993 46.7415L33.1283 45.52C32.8788 45.3259 32.5407 45.2897 32.2559 45.4268C32.0695 45.5204 31.8766 45.6002 31.6785 45.6649C31.3643 45.7609 31.1357 46.0323 31.095 46.3582L30.8533 48.3333H29.1467L28.9026 46.3558C28.8615 46.0298 28.6332 45.7584 28.3191 45.6624C28.1209 45.5977 27.9281 45.518 27.7417 45.424C27.4569 45.2872 27.1187 45.3235 26.8693 45.5176L25.2983 46.7391L24.0918 45.5326L25.3133 43.9616C25.5074 43.7121 25.5436 43.374 25.4065 43.0892C25.3129 42.9028 25.2332 42.7099 25.1685 42.5118C25.0724 42.1977 24.801 41.969 24.4751 41.9283L22.5 41.6866V39.98L24.4775 39.7359C24.8035 39.6948 25.0749 39.4665 25.1709 39.1524C25.2356 38.9542 25.3153 38.7614 25.4093 38.575C25.5461 38.2902 25.5098 37.952 25.3158 37.7026L24.0942 36.1316L25.3007 34.9251L26.8717 36.1466C27.1212 36.3407 27.4593 36.3769 27.7441 36.2398C27.9305 36.1462 28.1234 36.0665 28.3215 36.0018C28.6357 35.9057 28.8643 35.6343 28.905 35.3084L29.1467 33.3333H30.8541L31.0974 35.3084C31.1373 35.6352 31.366 35.9078 31.6809 36.0042C31.8791 36.0689 32.0719 36.1487 32.2583 36.2427C32.5431 36.3794 32.8813 36.3432 33.1307 36.1491L34.7017 34.9276L35.9082 36.134L34.6867 37.7051C34.4926 37.9545 34.4564 38.2926 34.5935 38.5775C34.6871 38.7638 34.7668 38.9567 34.8315 39.1548C34.9276 39.469 35.199 39.6977 35.5249 39.7383L37.5 39.98ZM48.3333 25.8516L46.3574 26.1015C46.0413 26.1413 45.7756 26.3578 45.6726 26.6593C45.6018 26.8624 45.5184 27.0605 45.4224 27.2534C45.2824 27.5395 45.3178 27.8804 45.5135 28.1315L46.7358 29.705L45.5326 30.9082L43.9591 29.6859C43.7089 29.4901 43.3695 29.4535 43.0835 29.5915C42.8906 29.6875 42.6925 29.7709 42.489 29.8417C42.1875 29.9446 41.9714 30.2104 41.9316 30.5265L41.685 32.5H39.9817L39.7318 30.5241C39.692 30.2079 39.4755 29.9422 39.174 29.8393C38.9709 29.7685 38.7728 29.685 38.5799 29.589C38.2939 29.449 37.9529 29.4844 37.7018 29.6802L36.1283 30.9025L34.9251 29.6993L36.1475 28.1258C36.3432 27.8756 36.3798 27.5362 36.2419 27.2501C36.1458 27.0573 36.0624 26.8591 35.9916 26.6557C35.8887 26.3542 35.623 26.1381 35.3068 26.0982L33.3333 25.8516V24.1483L35.3092 23.8985C35.6254 23.8586 35.8911 23.6422 35.9941 23.3406C36.0649 23.1376 36.1483 22.9394 36.2443 22.7466C36.3843 22.4605 36.3489 22.1195 36.1532 21.8685L34.9308 20.295L36.134 19.0918L37.7075 20.3141C37.959 20.5098 38.2996 20.5452 38.586 20.4049C38.7785 20.3092 38.9771 20.2258 39.1801 20.155C39.4816 20.0521 39.6981 19.786 39.7375 19.4698L39.9874 17.4943H41.6907L41.9409 19.4698C41.9804 19.786 42.1969 20.0521 42.4984 20.155C42.7014 20.2258 42.9 20.3092 43.0924 20.4049C43.3785 20.5452 43.7195 20.5098 43.9709 20.3141L45.544 19.0918L46.7476 20.295L45.5249 21.8685C45.3251 22.1187 45.286 22.4613 45.4248 22.7498C45.5208 22.9427 45.6042 23.1409 45.675 23.3443C45.778 23.6458 46.0437 23.8619 46.3599 23.9018L48.3358 24.1516L48.3333 25.8516Z" fill="black"/>
<path d="M40.8332 20.8334C38.5321 20.8334 36.6665 22.699 36.6665 25C36.6665 27.3011 38.5321 29.1667 40.8332 29.1667C43.1342 29.1667 44.9998 27.3011 44.9998 25C44.997 22.6998 43.1334 20.8362 40.8332 20.8334ZM40.8332 27.5C39.4526 27.5 38.3332 26.3807 38.3332 25C38.3332 23.6194 39.4526 22.5 40.8332 22.5C42.2138 22.5 43.3332 23.6194 43.3332 25C43.3332 26.3807 42.2138 27.5 40.8332 27.5Z" fill="black"/>
<path d="M30.0002 13.3333C32.3012 13.3333 34.1668 11.4677 34.1668 9.16667C34.1668 6.86564 32.3012 5 30.0002 5C27.6991 5 25.8335 6.86564 25.8335 9.16667C25.8363 11.4669 27.7 13.3305 30.0002 13.3333ZM30.0002 6.66667C31.3808 6.66667 32.5002 7.78605 32.5002 9.16667C32.5002 10.5473 31.3808 11.6667 30.0002 11.6667C28.6195 11.6667 27.5002 10.5473 27.5002 9.16667C27.5002 7.78605 28.6195 6.66667 30.0002 6.66667Z" fill="black"/>
<path d="M30.0002 36.6666C28.3356 36.6687 26.8325 37.6615 26.1762 39.191C25.5202 40.721 25.8376 42.4943 26.9834 43.7015L26.9887 43.7056C28.2981 45.0818 30.3725 45.3979 32.0323 44.4747C33.692 43.551 34.5176 41.6219 34.0391 39.7839C33.5606 37.9455 31.8996 36.6638 30.0002 36.6666ZM30.0002 43.3333C29.3191 43.3398 28.6664 43.0611 28.2001 42.5643L27.5918 43.1331L28.1936 42.5565C27.7476 42.0939 27.499 41.4758 27.5002 40.8333C27.5002 39.4527 28.6196 38.3333 30.0002 38.3333C31.3808 38.3333 32.5002 39.4527 32.5002 40.8333C32.5002 42.2139 31.3808 43.3333 30.0002 43.3333Z" fill="black"/>
</g>
<defs>
<clipPath id="clip0">
<rect width="50" height="50" fill="white"/>
</clipPath>
</defs>
</svg>
