<svg width="113" height="47" viewBox="0 0 113 47" fill="none" xmlns="http://www.w3.org/2000/svg">
<g clip-path="url(#clip0)">
<path d="M112.704 32.3046C112.433 29.6133 110.495 28.4131 108.677 28.4131C107.844 28.4131 107.181 28.6532 106.926 28.756L106.569 28.9105L106.263 29.1334C105.838 29.4588 105.091 29.9046 104.428 30.1446C104.394 29.5961 104.411 28.8931 104.496 28.3103L104.513 28.2075C105.006 23.4757 104.02 20.7157 101.59 20.0127C101.182 19.8927 100.757 19.8413 100.332 19.8413C98.8535 19.8413 97.545 20.5613 96.6951 21.1784C95.9814 20.27 94.7919 19.7556 93.2963 19.7556C91.07 19.7556 89.2855 20.8016 88.6398 22.4814C88.5717 22.6529 88.4866 22.9099 88.3847 23.2528C87.0762 20.3384 84.408 19.2241 81.9268 19.2241C79.5814 19.2241 77.3041 20.15 76.4543 20.8013C76.4204 20.8355 76.3694 20.8528 76.3185 20.9042C74.0921 22.4986 72.3586 24.5044 71.1349 26.9215C70.5402 24.8301 69.2317 22.8757 66.8863 21.4013L66.8524 21.3671C66.7844 21.3329 66.7334 21.2987 66.6654 21.2643C68.9598 17.1497 70.9991 11.6981 69.7755 6.50363C68.4838 0.96624 65.2547 0.143188 63.4363 0.143188C62.6887 0.143188 61.924 0.280437 61.1422 0.554714L61.0912 0.571926L61.04 0.588916C57.6241 1.94331 56.1286 3.98351 55.8055 4.46366C55.4658 4.97779 51.7269 10.7038 50.8263 19.0871C50.7244 20.0127 50.6222 20.9728 50.5203 21.9329C49.9936 21.1784 49.1269 20.4929 47.7501 20.0641C47.3253 19.9271 46.8835 19.8757 46.4416 19.8757C44.5552 19.8757 43.0255 21.0414 42.2098 21.8128L42.1928 21.7956C41.479 20.7327 40.3405 20.0985 39.0827 20.0471H38.7769C36.7715 20.0471 35.174 20.9386 34.0013 21.9501C33.2537 20.6299 31.8769 19.8071 30.2626 19.8071C30.1266 19.8071 30.0076 19.8071 29.8886 19.8243H29.6167C27.3903 19.8243 25.6399 20.8872 24.9262 22.6529C24.8752 22.7901 24.8072 22.9614 24.7392 23.1842C22.9888 20.99 20.7624 19.9613 17.7714 19.9613H17.4826C15.613 19.9955 10.9565 20.7844 8.10122 27.2646C7.65937 28.2589 7.31944 29.2704 7.06461 30.2647C6.55302 30.0268 5.99632 29.904 5.43301 29.9046C3.93748 29.9046 2.81599 30.7618 2.27219 31.5677C1.83034 32.219 0.419452 34.5333 1.11636 36.7963C1.49041 38.0135 2.35707 38.9394 3.58071 39.4193C4.65145 39.848 6.01093 40.2593 7.0307 40.5508C7.65937 41.9908 8.78107 43.6537 10.7694 45.1796C12.1801 46.2597 13.9814 46.8082 16.1059 46.8082C19.6749 46.8082 23.1246 45.2482 23.4987 45.0767L23.6345 45.0083L23.6684 44.9739C24.3483 45.6939 25.2491 46.2083 26.3876 46.4311C26.7275 46.4995 27.1694 46.5512 27.6793 46.5512C29.6167 46.5512 30.9593 45.5567 32.2 43.6881C33.2196 45.2996 35.0721 46.208 37.2643 46.208H37.2814C37.4004 46.208 37.5194 46.2941 37.6554 46.2941C38.8108 46.2941 40.2554 45.8826 41.4622 43.9282C42.4647 45.7453 44.3001 46.791 46.4757 46.791C48.4129 46.791 50.0955 45.9854 50.4013 45.8312L50.4693 45.7967C51.115 45.4538 51.6591 45.1454 52.0839 44.9053C53.5284 45.6767 55.7206 46.534 58.4059 46.534C58.8648 46.534 59.3235 46.5167 59.7825 46.4655L59.9015 46.4483L60.0205 46.4311C65.7137 45.2996 69.4185 43.9282 71.6278 42.8823C73.1743 44.631 75.6386 46.3111 79.1566 46.5682C79.5475 46.6026 79.9553 46.6196 80.3462 46.6196C83.2353 46.6196 85.5465 45.7967 87.2462 44.8881C87.7899 45.471 88.4698 46.0024 89.3535 46.3625C89.8802 46.5854 90.424 46.6882 90.9849 46.6882C94.5198 46.6882 96.1684 42.4366 96.6273 40.9966L97.4769 38.6995C98.2248 39.5049 99.1766 40.1565 100.383 40.4994C101.046 40.6881 101.76 40.7907 102.49 40.7907C106.382 40.7907 110.121 38.0135 110.716 37.5508C111.787 36.6593 112.959 34.8248 112.704 32.3046Z" fill="white"/>
<path d="M77.0508 33.4664C77.0508 33.4664 76.558 31.7179 78.3934 28.3405C80.2119 24.9803 81.6396 26.8147 81.6396 26.8147C81.6396 26.8147 83.2029 28.5292 81.4187 31.0835C79.6342 33.655 77.0508 33.4666 77.0508 33.4666V33.4664ZM63.0301 35.9009C60.9398 41.4211 55.8585 39.1754 55.8585 39.1754C55.8585 39.1754 55.2805 37.2039 56.929 31.6665C58.5776 26.1461 62.4522 28.3063 62.4522 28.3063C62.4522 28.3063 65.1204 30.3805 63.0301 35.9009ZM59.2404 12.7738C59.2404 12.7738 62.4012 4.45921 63.1662 8.50519C63.9309 12.5509 56.5383 24.5858 56.5383 24.5858C56.6061 21.8772 59.2404 12.774 59.2404 12.774V12.7738ZM14.0341 33.4662C14.17 28.1174 17.6368 25.786 18.8436 26.9517C20.0502 28.1174 19.6083 30.6375 17.331 32.2148C15.0708 33.7921 14.0341 33.4662 14.0341 33.4662ZM109.817 32.5919C109.647 30.7918 108.033 31.4604 108.033 31.4604C108.033 31.4604 105.449 33.4834 103.172 33.2605C100.912 33.0204 101.626 27.9118 101.626 27.9118C101.626 27.9118 102.118 23.2144 100.776 22.8201C99.4331 22.4258 97.7845 24.0372 97.7845 24.0372C97.7845 24.0372 95.7283 26.3343 94.7593 29.249L94.4876 29.3346C94.4876 29.3346 94.7934 24.2087 94.4366 23.043C94.1647 22.46 91.7175 22.5114 91.3266 23.5401C90.9186 24.5686 88.9641 31.7519 88.8283 34.7694C88.8283 34.7694 85.0045 38.0437 81.6564 38.5922C78.3086 39.1236 77.5097 37.015 77.5097 37.015C77.5097 37.015 86.602 34.4607 86.2791 27.1401C85.9731 19.8198 78.9543 22.5284 78.1555 23.1286C77.3907 23.7116 73.295 26.1973 72.0884 33.1063C72.0543 33.3463 71.9694 34.375 71.9694 34.375C71.9694 34.375 68.4514 36.7579 66.4972 37.3921C66.4972 37.3921 71.9694 28.1002 65.2904 23.8658C62.2654 22.0315 59.8522 25.8888 59.8522 25.8888C59.8522 25.8888 68.8933 15.7397 66.8881 7.15057C65.9363 3.07062 63.9138 2.62489 62.0445 3.29348C59.2234 4.42501 58.1526 6.07067 58.1526 6.07067C58.1526 6.07067 54.4988 11.4194 53.6489 19.3741C52.7993 27.3288 51.5586 36.9291 51.5586 36.9291C51.5586 36.9291 49.8251 38.6437 48.2276 38.7293C46.6302 38.8151 47.3439 33.9291 47.3439 33.9291C47.3439 33.9291 48.5846 26.4715 48.4995 25.2202C48.4147 23.9686 48.3296 23.2828 46.8511 22.8371C45.3895 22.3914 43.7749 24.2773 43.7749 24.2773C43.7749 24.2773 39.5434 30.7404 39.1864 31.7347L38.9655 32.1462L38.7445 31.8719C38.7445 31.8719 41.7356 23.06 38.8806 22.9401C36.0254 22.8029 34.156 26.0772 34.156 26.0772C34.156 26.0772 30.9099 31.5632 30.774 32.1806L30.5531 31.9061C30.5531 31.9061 31.8957 25.5287 31.6238 23.9514C31.3519 22.3744 29.8903 22.7001 29.8903 22.7001C29.8903 22.7001 28.0209 22.4772 27.5279 23.6943C27.0351 24.9115 25.2508 32.952 25.0299 35.5061C25.0299 35.5061 20.3562 38.8837 17.2801 38.9179C14.2041 38.9693 14.527 36.9464 14.527 36.9464C14.527 36.9464 25.7944 33.0548 22.7184 25.3744C21.3419 23.4029 19.7273 22.7857 17.4671 22.8201C15.19 22.8715 12.5215 24.2601 10.6861 28.3917C9.81943 30.3633 9.46244 32.2318 9.46244 33.6548C9.46244 33.6548 7.35508 34.0663 6.28456 33.1577C5.21382 32.2662 4.602 33.1577 4.602 33.1577C4.602 33.1577 2.73263 35.8493 4.55103 36.569C6.36943 37.2893 9.19055 37.9579 9.19055 37.9579C9.4456 39.1236 10.2103 41.0265 12.4367 42.7238C15.7677 45.2782 22.1917 42.3295 22.1917 42.3295L24.8258 40.7523C24.8258 40.7523 24.9109 43.1354 26.8312 43.4952C28.7518 43.8554 29.5504 43.461 32.8814 35.3007C34.8358 31.1175 34.9717 31.3403 34.9717 31.3403L35.1926 31.2889C35.1926 31.2889 33.6802 39.2778 34.2579 41.4381C34.8358 43.5983 37.368 43.3754 37.368 43.3754C37.368 43.3754 38.7445 43.8723 39.8662 39.9122C40.9879 35.9521 43.1124 31.8205 43.1124 31.8205H43.3843C43.3843 31.8205 42.4494 39.7752 43.8771 42.3809C45.3046 44.9869 48.9924 43.1523 48.9924 43.1523C48.9924 43.1523 51.5757 41.781 51.9834 41.3694C51.9834 41.3694 55.0425 43.9754 59.3763 43.4952C69.0464 41.5751 72.4793 38.9693 72.4793 38.9693C72.4793 38.9693 74.1448 43.2038 79.2772 43.5981C85.1574 44.0438 88.3694 40.3065 88.3694 40.3065C88.3694 40.3065 88.3184 42.7238 90.3748 43.5811C92.431 44.4381 93.8078 39.9122 93.8078 39.9122L97.2407 30.6375H97.5467C97.5467 30.6375 97.7167 36.5693 101.115 37.5635C104.532 38.5408 108.933 35.112 108.933 35.112C108.933 35.112 110.004 34.392 109.817 32.5919" fill="#5E5E66"/>
</g>
<defs>
<clipPath id="clip0">
<rect width="112" height="47" fill="white" transform="translate(0.769531)"/>
</clipPath>
</defs>
</svg>
