<svg width="125" height="33" viewBox="0 0 125 33" fill="none" xmlns="http://www.w3.org/2000/svg">
<g clip-path="url(#clip0)">
<path d="M74.2815 14.1436H77.5539V25.925H74.2815V24.3934C73.1128 26.1606 71.5935 26.2784 70.6585 26.2784C67.0355 26.2784 64.6981 23.4509 64.6981 20.0343C64.6981 16.4999 67.0355 13.7902 70.4248 13.7902C71.3597 13.7902 73.1128 13.908 74.1646 15.6752V14.1436H74.2815ZM68.2042 20.0343C68.2042 21.9193 69.4898 23.3331 71.4766 23.3331C73.3465 23.3331 74.749 21.9193 74.749 20.0343C74.749 18.1493 73.4634 16.7355 71.4766 16.7355C69.6067 16.7355 68.2042 18.1493 68.2042 20.0343ZM83.9818 16.9712V25.925H80.7094V16.9712H79.4238V14.1436H80.7094V10.138H83.9818V14.1436H86.2023V16.9712H83.9818ZM93.9158 16.9712C93.0977 16.2643 92.3965 16.1465 92.0459 16.1465C91.2278 16.1465 90.7603 16.4999 90.7603 17.089C90.7603 17.4424 90.8772 17.7958 91.8121 18.1493L92.6302 18.3849C93.5652 18.7384 94.9677 19.0918 95.552 20.0343C95.9026 20.5056 96.1364 21.2124 96.1364 22.0371C96.1364 23.0975 95.7858 24.1578 94.8508 24.9825C93.9158 25.8072 92.7471 26.2784 91.3447 26.2784C88.8904 26.2784 87.6048 25.1003 86.7867 24.2756L88.5398 22.2728C89.241 22.9796 90.176 23.6865 91.1109 23.6865C92.0459 23.6865 92.7471 23.2153 92.7471 22.3906C92.7471 21.6837 92.1628 21.3303 91.6953 21.2124L90.994 20.9768C90.1759 20.6234 89.241 20.2699 88.5398 19.5631C87.9554 18.974 87.6048 18.2671 87.6048 17.3246C87.6048 16.1465 88.1892 15.204 88.7735 14.6149C89.7085 13.908 90.8772 13.7902 91.8121 13.7902C92.6302 13.7902 94.0327 13.908 95.552 15.0861L93.9158 16.9712ZM101.045 15.6752C102.214 14.0258 103.85 13.7902 104.785 13.7902C108.174 13.7902 110.511 16.4999 110.511 20.0343C110.511 23.5687 108.174 26.2784 104.668 26.2784C103.967 26.2784 102.214 26.1606 100.928 24.3934V25.925H97.7726V6.13232H101.045V15.6752ZM100.694 20.0343C100.694 21.9193 101.98 23.3331 103.967 23.3331C105.837 23.3331 107.239 21.9193 107.239 20.0343C107.239 18.1493 105.954 16.7355 103.967 16.7355C101.98 16.7355 100.694 18.1493 100.694 20.0343ZM115.888 24.1578L110.278 14.1436H114.134L117.757 20.859L121.03 14.1436H124.77L115.42 32.1691H111.68L115.888 24.1578ZM63.88 16.1465H55.699V19.4452H60.0233C59.322 21.6837 57.6858 23.2153 54.6472 23.2153C51.2579 23.2153 48.8037 20.3877 48.8037 16.9712C48.8037 13.5546 51.1411 10.6092 54.5303 10.6092C56.4003 10.6092 58.2702 11.5517 59.4389 13.0833L62.1269 11.3161C60.3739 8.84203 57.569 7.42827 54.5303 7.42827C49.388 7.42827 45.1807 11.6696 45.1807 16.9712C45.1807 22.2728 49.1543 26.514 54.5303 26.514C59.9064 26.514 63.88 22.2728 63.88 16.9712C63.9969 16.6177 63.88 16.3821 63.88 16.1465Z" fill="#5E5E66"/>
<path d="M29.987 16.5H21.806V18.8563H27.4158C26.5977 22.3907 24.0266 25.336 20.6373 26.5141L7.19716 12.9656C8.59961 8.84213 12.5732 5.8968 17.1312 5.8968C20.6373 5.8968 23.7928 7.664 25.7796 10.3737L27.5327 8.84213C25.1953 5.66117 21.4554 3.54053 17.1312 3.54053C11.0539 3.54053 5.91158 7.89962 4.626 13.6725L20.053 29.2238C25.6628 27.8101 29.987 22.6263 29.987 16.5ZM4.27539 16.6178C4.27539 19.9166 5.56097 23.0976 8.01526 25.5716C10.4695 28.0457 13.7419 29.3417 16.8974 29.3417L4.27539 16.6178Z" fill="white"/>
<path d="M17.1315 0.00683594C8.1324 0.00683594 0.769531 7.42908 0.769531 16.5007C0.769531 25.5723 8.1324 32.9946 17.1315 32.9946C26.1305 32.9946 33.4934 25.5723 33.4934 16.5007C33.4934 7.42908 26.1305 0.00683594 17.1315 0.00683594ZM8.01553 25.6902C5.56124 23.2161 4.27566 19.9173 4.27566 16.7363L17.0146 29.4602C13.7422 29.3424 10.4698 28.1642 8.01553 25.6902ZM19.9364 29.1067L4.62627 13.6732C5.91185 7.90033 11.0542 3.54124 17.1315 3.54124C21.4557 3.54124 25.1955 5.66188 27.533 8.84284L25.7799 10.3744C23.7931 7.66471 20.6376 5.89751 17.1315 5.89751C12.5735 5.89751 8.71675 8.84284 7.19743 12.9663L20.6376 26.5149C24.0268 25.3367 26.598 22.3914 27.4161 18.857H21.8063V16.5007H29.9873C29.9873 22.627 25.663 27.8108 19.9364 29.1067Z" fill="#5E5E66"/>
</g>
<defs>
<clipPath id="clip0">
<rect width="124" height="33" fill="white" transform="translate(0.769531)"/>
</clipPath>
</defs>
</svg>
