<svg width="770" height="228" viewBox="0 0 770 228" fill="none" xmlns="http://www.w3.org/2000/svg">
<g filter="url(#filter0_ii)">
<rect width="770" height="228" fill="white"/>
</g>
<rect x="15" y="15" width="104" height="36" rx="18" fill="#F8FAFB"/>
<path d="M56.214 36.182C55.2993 36.182 54.5153 35.9673 53.862 35.538C53.218 35.1087 52.7653 34.5207 52.504 33.774L53.624 33.13C54.0067 34.3153 54.8793 34.908 56.242 34.908C56.914 34.908 57.4273 34.7727 57.782 34.502C58.1367 34.222 58.314 33.8533 58.314 33.396C58.314 32.9293 58.1367 32.5793 57.782 32.346C57.4273 32.1127 56.8347 31.8653 56.004 31.604C55.5933 31.4733 55.2807 31.3707 55.066 31.296C54.8513 31.212 54.5807 31.0907 54.254 30.932C53.9367 30.764 53.6987 30.596 53.54 30.428C53.3813 30.2507 53.2367 30.022 53.106 29.742C52.9847 29.462 52.924 29.1447 52.924 28.79C52.924 27.9407 53.2227 27.2687 53.82 26.774C54.4173 26.27 55.1453 26.018 56.004 26.018C56.7787 26.018 57.4507 26.214 58.02 26.606C58.5987 26.998 59.0327 27.516 59.322 28.16L58.23 28.79C57.81 27.782 57.068 27.278 56.004 27.278C55.472 27.278 55.0427 27.4087 54.716 27.67C54.3893 27.9313 54.226 28.286 54.226 28.734C54.226 29.1633 54.38 29.49 54.688 29.714C54.996 29.938 55.528 30.1713 56.284 30.414C56.5547 30.498 56.746 30.5587 56.858 30.596C56.97 30.6333 57.1427 30.6987 57.376 30.792C57.6187 30.8853 57.796 30.96 57.908 31.016C58.02 31.072 58.1693 31.1513 58.356 31.254C58.552 31.3567 58.6967 31.4547 58.79 31.548C58.8833 31.6413 58.9907 31.758 59.112 31.898C59.2427 32.0287 59.336 32.164 59.392 32.304C59.448 32.444 59.4947 32.6073 59.532 32.794C59.5787 32.9713 59.602 33.1627 59.602 33.368C59.602 34.2267 59.2893 34.9127 58.664 35.426C58.0387 35.93 57.222 36.182 56.214 36.182ZM64.6207 30.176H62.7587V33.97C62.7587 34.3153 62.824 34.5627 62.9547 34.712C63.0947 34.852 63.3047 34.9267 63.5847 34.936C63.8647 34.936 64.21 34.9267 64.6207 34.908V36C63.5567 36.14 62.7773 36.056 62.2827 35.748C61.788 35.4307 61.5407 34.838 61.5407 33.97V30.176H60.1547V29H61.5407V27.404L62.7587 27.04V29H64.6207V30.176ZM71.5032 29H72.7212V36H71.5032V34.796C70.8965 35.72 70.0145 36.182 68.8572 36.182C67.8772 36.182 67.0419 35.8273 66.3512 35.118C65.6605 34.3993 65.3152 33.5267 65.3152 32.5C65.3152 31.4733 65.6605 30.6053 66.3512 29.896C67.0419 29.1773 67.8772 28.818 68.8572 28.818C70.0145 28.818 70.8965 29.28 71.5032 30.204V29ZM69.0112 35.006C69.7205 35.006 70.3132 34.768 70.7892 34.292C71.2652 33.8067 71.5032 33.2093 71.5032 32.5C71.5032 31.7907 71.2652 31.198 70.7892 30.722C70.3132 30.2367 69.7205 29.994 69.0112 29.994C68.3112 29.994 67.7232 30.2367 67.2472 30.722C66.7712 31.198 66.5332 31.7907 66.5332 32.5C66.5332 33.2093 66.7712 33.8067 67.2472 34.292C67.7232 34.768 68.3112 35.006 69.0112 35.006ZM78.3746 30.176H76.5126V33.97C76.5126 34.3153 76.5779 34.5627 76.7086 34.712C76.8486 34.852 77.0586 34.9267 77.3386 34.936C77.6186 34.936 77.9639 34.9267 78.3746 34.908V36C77.3106 36.14 76.5312 36.056 76.0366 35.748C75.5419 35.4307 75.2946 34.838 75.2946 33.97V30.176H73.9086V29H75.2946V27.404L76.5126 27.04V29H78.3746V30.176ZM84.6876 29H85.9056V36H84.6876V34.992C84.1929 35.7853 83.4369 36.182 82.4196 36.182C81.5983 36.182 80.9403 35.9253 80.4456 35.412C79.9509 34.8893 79.7036 34.1847 79.7036 33.298V29H80.9216V33.228C80.9216 33.7973 81.0756 34.2407 81.3836 34.558C81.6916 34.866 82.1163 35.02 82.6576 35.02C83.2643 35.02 83.7543 34.8333 84.1276 34.46C84.5009 34.0773 84.6876 33.494 84.6876 32.71V29ZM88.7963 30.89C88.7963 31.1607 88.9316 31.38 89.2023 31.548C89.4729 31.7067 89.7996 31.8373 90.1823 31.94C90.5649 32.0333 90.9476 32.1453 91.3303 32.276C91.7129 32.3973 92.0396 32.612 92.3103 32.92C92.5809 33.2187 92.7163 33.606 92.7163 34.082C92.7163 34.7167 92.4689 35.2253 91.9743 35.608C91.4889 35.9907 90.8636 36.182 90.0983 36.182C89.4169 36.182 88.8336 36.0327 88.3483 35.734C87.8629 35.4353 87.5176 35.0387 87.3123 34.544L88.3623 33.942C88.4743 34.278 88.6843 34.544 88.9923 34.74C89.3003 34.936 89.6689 35.034 90.0983 35.034C90.4996 35.034 90.8309 34.9593 91.0923 34.81C91.3536 34.6513 91.4843 34.4087 91.4843 34.082C91.4843 33.8113 91.3489 33.5967 91.0783 33.438C90.8076 33.27 90.4809 33.1393 90.0983 33.046C89.7156 32.9433 89.3329 32.8267 88.9503 32.696C88.5676 32.5653 88.2409 32.3507 87.9703 32.052C87.6996 31.7533 87.5643 31.3707 87.5643 30.904C87.5643 30.2973 87.7976 29.798 88.2643 29.406C88.7403 29.014 89.3329 28.818 90.0423 28.818C90.6116 28.818 91.1156 28.9487 91.5543 29.21C92.0023 29.462 92.3383 29.8167 92.5623 30.274L91.5403 30.848C91.2883 30.2507 90.7889 29.952 90.0423 29.952C89.6969 29.952 89.4029 30.036 89.1603 30.204C88.9176 30.3627 88.7963 30.5913 88.7963 30.89Z" fill="#252631"/>
<path d="M36 38C38.7614 38 41 35.7614 41 33C41 30.2386 38.7614 28 36 28C33.2386 28 31 30.2386 31 33C31 35.7614 33.2386 38 36 38Z" fill="#00FF29"/>
<mask id="mask0" mask-type="alpha" maskUnits="userSpaceOnUse" x="31" y="28" width="10" height="10">
<path d="M36 38C38.7614 38 41 35.7614 41 33C41 30.2386 38.7614 28 36 28C33.2386 28 31 30.2386 31 33C31 35.7614 33.2386 38 36 38Z" fill="white"/>
</mask>
<g mask="url(#mask0)">
<rect width="16" height="18" transform="translate(28 24)" fill="#00FF29"/>
<rect x="28" y="24" width="16" height="18" fill="#00FF29"/>
</g>
<rect x="135" y="15" width="86" height="36" rx="18" fill="#F8FAFB"/>
<path d="M176.214 38.182C175.299 38.182 174.515 37.9673 173.862 37.538C173.218 37.1087 172.765 36.5207 172.504 35.774L173.624 35.13C174.007 36.3153 174.879 36.908 176.242 36.908C176.914 36.908 177.427 36.7727 177.782 36.502C178.137 36.222 178.314 35.8533 178.314 35.396C178.314 34.9293 178.137 34.5793 177.782 34.346C177.427 34.1127 176.835 33.8653 176.004 33.604C175.593 33.4733 175.281 33.3707 175.066 33.296C174.851 33.212 174.581 33.0907 174.254 32.932C173.937 32.764 173.699 32.596 173.54 32.428C173.381 32.2507 173.237 32.022 173.106 31.742C172.985 31.462 172.924 31.1447 172.924 30.79C172.924 29.9407 173.223 29.2687 173.82 28.774C174.417 28.27 175.145 28.018 176.004 28.018C176.779 28.018 177.451 28.214 178.02 28.606C178.599 28.998 179.033 29.516 179.322 30.16L178.23 30.79C177.81 29.782 177.068 29.278 176.004 29.278C175.472 29.278 175.043 29.4087 174.716 29.67C174.389 29.9313 174.226 30.286 174.226 30.734C174.226 31.1633 174.38 31.49 174.688 31.714C174.996 31.938 175.528 32.1713 176.284 32.414C176.555 32.498 176.746 32.5587 176.858 32.596C176.97 32.6333 177.143 32.6987 177.376 32.792C177.619 32.8853 177.796 32.96 177.908 33.016C178.02 33.072 178.169 33.1513 178.356 33.254C178.552 33.3567 178.697 33.4547 178.79 33.548C178.883 33.6413 178.991 33.758 179.112 33.898C179.243 34.0287 179.336 34.164 179.392 34.304C179.448 34.444 179.495 34.6073 179.532 34.794C179.579 34.9713 179.602 35.1627 179.602 35.368C179.602 36.2267 179.289 36.9127 178.664 37.426C178.039 37.93 177.222 38.182 176.214 38.182ZM184.621 32.176H182.759V35.97C182.759 36.3153 182.824 36.5627 182.955 36.712C183.095 36.852 183.305 36.9267 183.585 36.936C183.865 36.936 184.21 36.9267 184.621 36.908V38C183.557 38.14 182.777 38.056 182.283 37.748C181.788 37.4307 181.541 36.838 181.541 35.97V32.176H180.155V31H181.541V29.404L182.759 29.04V31H184.621V32.176ZM191.503 31H192.721V38H191.503V36.796C190.897 37.72 190.015 38.182 188.857 38.182C187.877 38.182 187.042 37.8273 186.351 37.118C185.661 36.3993 185.315 35.5267 185.315 34.5C185.315 33.4733 185.661 32.6053 186.351 31.896C187.042 31.1773 187.877 30.818 188.857 30.818C190.015 30.818 190.897 31.28 191.503 32.204V31ZM189.011 37.006C189.721 37.006 190.313 36.768 190.789 36.292C191.265 35.8067 191.503 35.2093 191.503 34.5C191.503 33.7907 191.265 33.198 190.789 32.722C190.313 32.2367 189.721 31.994 189.011 31.994C188.311 31.994 187.723 32.2367 187.247 32.722C186.771 33.198 186.533 33.7907 186.533 34.5C186.533 35.2093 186.771 35.8067 187.247 36.292C187.723 36.768 188.311 37.006 189.011 37.006ZM198.375 32.176H196.513V35.97C196.513 36.3153 196.578 36.5627 196.709 36.712C196.849 36.852 197.059 36.9267 197.339 36.936C197.619 36.936 197.964 36.9267 198.375 36.908V38C197.311 38.14 196.531 38.056 196.037 37.748C195.542 37.4307 195.295 36.838 195.295 35.97V32.176H193.909V31H195.295V29.404L196.513 29.04V31H198.375V32.176ZM200.525 32.89C200.525 33.1607 200.66 33.38 200.931 33.548C201.201 33.7067 201.528 33.8373 201.911 33.94C202.293 34.0333 202.676 34.1453 203.059 34.276C203.441 34.3973 203.768 34.612 204.039 34.92C204.309 35.2187 204.445 35.606 204.445 36.082C204.445 36.7167 204.197 37.2253 203.703 37.608C203.217 37.9907 202.592 38.182 201.827 38.182C201.145 38.182 200.562 38.0327 200.077 37.734C199.591 37.4353 199.246 37.0387 199.041 36.544L200.091 35.942C200.203 36.278 200.413 36.544 200.721 36.74C201.029 36.936 201.397 37.034 201.827 37.034C202.228 37.034 202.559 36.9593 202.821 36.81C203.082 36.6513 203.213 36.4087 203.213 36.082C203.213 35.8113 203.077 35.5967 202.807 35.438C202.536 35.27 202.209 35.1393 201.827 35.046C201.444 34.9433 201.061 34.8267 200.679 34.696C200.296 34.5653 199.969 34.3507 199.699 34.052C199.428 33.7533 199.293 33.3707 199.293 32.904C199.293 32.2973 199.526 31.798 199.993 31.406C200.469 31.014 201.061 30.818 201.771 30.818C202.34 30.818 202.844 30.9487 203.283 31.21C203.731 31.462 204.067 31.8167 204.291 32.274L203.269 32.848C203.017 32.2507 202.517 31.952 201.771 31.952C201.425 31.952 201.131 32.036 200.889 32.204C200.646 32.3627 200.525 32.5913 200.525 32.89Z" fill="#252631"/>
<path d="M156 38C158.761 38 161 35.7614 161 33C161 30.2386 158.761 28 156 28C153.239 28 151 30.2386 151 33C151 35.7614 153.239 38 156 38Z" fill="#D8D8D8"/>
<mask id="mask1" mask-type="alpha" maskUnits="userSpaceOnUse" x="151" y="28" width="10" height="10">
<path d="M156 38C158.761 38 161 35.7614 161 33C161 30.2386 158.761 28 156 28C153.239 28 151 30.2386 151 33C151 35.7614 153.239 38 156 38Z" fill="white"/>
</mask>
<g mask="url(#mask1)">
<rect x="148" y="24" width="16" height="18" fill="#4D7CFE"/>
</g>
<path d="M24.9613 204.181C24.5161 204.801 23.8923 205.112 23.0898 205.112C22.2873 205.112 21.6635 204.801 21.2183 204.181C20.7732 203.56 20.5506 202.732 20.5506 201.698C20.5506 200.663 20.7732 199.836 21.2183 199.215C21.6635 198.594 22.2873 198.284 23.0898 198.284C23.8923 198.284 24.5161 198.594 24.9613 199.215C25.4064 199.836 25.629 200.663 25.629 201.698C25.629 202.732 25.4064 203.56 24.9613 204.181ZM21.8578 203.588C22.1462 204.033 22.5569 204.256 23.0898 204.256C23.6227 204.256 24.0334 204.033 24.3218 203.588C24.6165 203.143 24.7638 202.513 24.7638 201.698C24.7638 200.883 24.6165 200.253 24.3218 199.808C24.0334 199.356 23.6227 199.13 23.0898 199.13C22.5569 199.13 22.1462 199.353 21.8578 199.798C21.5694 200.243 21.4252 200.877 21.4252 201.698C21.4252 202.513 21.5694 203.143 21.8578 203.588Z" fill="#252631"/>
<path d="M16.8621 172.208H17.6144V178.792H16.7492V173.149L15.348 173.563L15.1317 172.81L16.8621 172.208ZM23.186 177.983C22.7408 178.603 22.117 178.914 21.3145 178.914C20.512 178.914 19.8882 178.603 19.443 177.983C18.9979 177.362 18.7753 176.534 18.7753 175.5C18.7753 174.465 18.9979 173.638 19.443 173.017C19.8882 172.397 20.512 172.086 21.3145 172.086C22.117 172.086 22.7408 172.397 23.186 173.017C23.6311 173.638 23.8537 174.465 23.8537 175.5C23.8537 176.534 23.6311 177.362 23.186 177.983ZM20.0825 177.39C20.3709 177.835 20.7816 178.058 21.3145 178.058C21.8474 178.058 22.2581 177.835 22.5465 177.39C22.8412 176.945 22.9885 176.315 22.9885 175.5C22.9885 174.685 22.8412 174.055 22.5465 173.61C22.2581 173.158 21.8474 172.933 21.3145 172.933C20.7816 172.933 20.3709 173.155 20.0825 173.6C19.7941 174.045 19.6499 174.679 19.6499 175.5C19.6499 176.315 19.7941 176.945 20.0825 177.39Z" fill="#252631"/>
<path d="M15.3386 152.594V151.879L17.6614 149.509C18.2821 148.888 18.5925 148.355 18.5925 147.91C18.5925 147.54 18.4796 147.252 18.2539 147.045C18.0282 146.838 17.7523 146.735 17.4263 146.735C16.8056 146.735 16.3542 147.029 16.0721 147.619L15.3386 147.186C15.5455 146.76 15.8307 146.437 16.1944 146.217C16.5643 145.998 16.9718 145.888 17.4169 145.888C17.9686 145.888 18.4483 146.07 18.8558 146.434C19.2633 146.797 19.4671 147.286 19.4671 147.901C19.4671 148.565 19.0752 149.29 18.2915 150.073L16.6081 151.747H19.5893V152.594H15.3386ZM24.7013 151.785C24.2562 152.406 23.6324 152.716 22.8299 152.716C22.0274 152.716 21.4035 152.406 20.9584 151.785C20.5133 151.164 20.2907 150.337 20.2907 149.302C20.2907 148.268 20.5133 147.44 20.9584 146.819C21.4035 146.199 22.0274 145.888 22.8299 145.888C23.6324 145.888 24.2562 146.199 24.7013 146.819C25.1465 147.44 25.3691 148.268 25.3691 149.302C25.3691 150.337 25.1465 151.164 24.7013 151.785ZM21.5979 151.192C21.8863 151.638 22.297 151.86 22.8299 151.86C23.3628 151.86 23.7734 151.638 24.0618 151.192C24.3565 150.747 24.5038 150.117 24.5038 149.302C24.5038 148.487 24.3565 147.857 24.0618 147.412C23.7734 146.96 23.3628 146.735 22.8299 146.735C22.297 146.735 21.8863 146.957 21.5979 147.402C21.3095 147.848 21.1653 148.481 21.1653 149.302C21.1653 150.117 21.3095 150.747 21.5979 151.192Z" fill="#252631"/>
<path d="M17.9718 122.512C18.4733 122.606 18.884 122.822 19.2038 123.161C19.5235 123.499 19.6834 123.929 19.6834 124.449C19.6834 125.089 19.4639 125.593 19.0251 125.963C18.5862 126.333 18.0533 126.518 17.4263 126.518C16.9248 126.518 16.4796 126.405 16.0909 126.179C15.7022 125.947 15.4263 125.615 15.2633 125.183L15.9969 124.75C16.1912 125.358 16.6677 125.662 17.4263 125.662C17.8338 125.662 18.1661 125.556 18.4232 125.342C18.6802 125.129 18.8088 124.831 18.8088 124.449C18.8088 124.067 18.6802 123.769 18.4232 123.556C18.1661 123.336 17.8338 123.226 17.4263 123.226H17.2006L16.8527 122.69L18.3762 120.631H15.4514V119.813H19.4012V120.584L17.9718 122.512ZM24.8667 125.587C24.4215 126.208 23.7977 126.518 22.9952 126.518C22.1927 126.518 21.5689 126.208 21.1237 125.587C20.6786 124.966 20.456 124.139 20.456 123.104C20.456 122.07 20.6786 121.242 21.1237 120.621C21.5689 120.001 22.1927 119.69 22.9952 119.69C23.7977 119.69 24.4215 120.001 24.8667 120.621C25.3118 121.242 25.5344 122.07 25.5344 123.104C25.5344 124.139 25.3118 124.966 24.8667 125.587ZM21.7632 124.995C22.0516 125.44 22.4623 125.662 22.9952 125.662C23.5281 125.662 23.9388 125.44 24.2272 124.995C24.5218 124.549 24.6692 123.919 24.6692 123.104C24.6692 122.289 24.5218 121.659 24.2272 121.214C23.9388 120.763 23.5281 120.537 22.9952 120.537C22.4623 120.537 22.0516 120.759 21.7632 121.205C21.4748 121.65 21.3306 122.283 21.3306 123.104C21.3306 123.919 21.4748 124.549 21.7632 124.995Z" fill="#252631"/>
<path d="M20.257 98.1289V98.9471H19.4577V100.198H18.5831V98.9471H15.2257V98.1289L17.5862 93.6148H18.5266L16.1661 98.1289H18.5831V96.2669H19.4577V98.1289H20.257ZM25.2891 99.3891C24.844 100.01 24.2201 100.32 23.4176 100.32C22.6151 100.32 21.9913 100.01 21.5462 99.3891C21.101 98.7684 20.8785 97.9408 20.8785 96.9063C20.8785 95.8719 21.101 95.0443 21.5462 94.4236C21.9913 93.8029 22.6151 93.4926 23.4176 93.4926C24.2201 93.4926 24.844 93.8029 25.2891 94.4236C25.7343 95.0443 25.9568 95.8719 25.9568 96.9063C25.9568 97.9408 25.7343 98.7684 25.2891 99.3891ZM22.1857 98.7966C22.4741 99.2418 22.8847 99.4643 23.4176 99.4643C23.9506 99.4643 24.3612 99.2418 24.6496 98.7966C24.9443 98.3515 25.0916 97.7214 25.0916 96.9063C25.0916 96.0913 24.9443 95.4612 24.6496 95.0161C24.3612 94.5647 23.9506 94.339 23.4176 94.339C22.8847 94.339 22.4741 94.5615 22.1857 95.0067C21.8973 95.4518 21.7531 96.085 21.7531 96.9063C21.7531 97.7214 21.8973 98.3515 22.1857 98.7966Z" fill="#252631"/>
<path d="M17.5397 69.9843C18.1604 69.9843 18.6839 70.1693 19.1102 70.5392C19.5428 70.9028 19.7591 71.4075 19.7591 72.0533C19.7591 72.6928 19.5397 73.1975 19.1008 73.5674C18.6619 73.9373 18.129 74.1223 17.5021 74.1223C17.0005 74.1223 16.5522 74.0031 16.1572 73.7649C15.7622 73.5204 15.4864 73.1693 15.3296 72.7116L16.0726 72.2884C16.1604 72.6082 16.3296 72.8527 16.5804 73.0219C16.8312 73.185 17.1384 73.2665 17.5021 73.2665C17.9158 73.2665 18.2513 73.1599 18.5083 72.9467C18.7654 72.7335 18.8939 72.4357 18.8939 72.0533C18.8939 71.6709 18.7654 71.373 18.5083 71.1599C18.2513 70.9404 17.9221 70.8307 17.5209 70.8307H15.6588L15.9033 67.4169H19.5052V68.2351H16.6933L16.5804 69.9843H17.5397ZM24.7753 73.1912C24.3302 73.8119 23.7063 74.1223 22.9038 74.1223C22.1013 74.1223 21.4775 73.8119 21.0324 73.1912C20.5872 72.5705 20.3647 71.743 20.3647 70.7085C20.3647 69.674 20.5872 68.8464 21.0324 68.2257C21.4775 67.605 22.1013 67.2947 22.9038 67.2947C23.7063 67.2947 24.3302 67.605 24.7753 68.2257C25.2204 68.8464 25.443 69.674 25.443 70.7085C25.443 71.743 25.2204 72.5705 24.7753 73.1912ZM21.6719 72.5987C21.9603 73.0439 22.3709 73.2665 22.9038 73.2665C23.4367 73.2665 23.8474 73.0439 24.1358 72.5987C24.4305 72.1536 24.5778 71.5235 24.5778 70.7085C24.5778 69.8934 24.4305 69.2633 24.1358 68.8182C23.8474 68.3668 23.4367 68.1411 22.9038 68.1411C22.3709 68.1411 21.9603 68.3636 21.6719 68.8088C21.3835 69.2539 21.2393 69.8872 21.2393 70.7085C21.2393 71.5235 21.3835 72.1536 21.6719 72.5987Z" fill="#252631"/>
<path d="M39.1831 72.3066H743.839" stroke="#E8ECEF" stroke-width="0.671741" stroke-linecap="square" stroke-dasharray="2.69 2.69"/>
<path d="M39.1816 98.5046H743.837" stroke="#E8ECEF" stroke-width="0.671741" stroke-linecap="square" stroke-dasharray="2.69 2.69"/>
<path d="M39.1816 124.703H743.837" stroke="#E8ECEF" stroke-width="0.671741" stroke-linecap="square" stroke-dasharray="2.69 2.69"/>
<path d="M39.1816 150.9H743.837" stroke="#E8ECEF" stroke-width="0.671741" stroke-linecap="square" stroke-dasharray="2.69 2.69"/>
<path d="M39.1816 177.098H743.837" stroke="#E8ECEF" stroke-width="0.671741" stroke-linecap="square" stroke-dasharray="2.69 2.69"/>
<path d="M39.1816 203.296H743.837" stroke="#E8ECEF" stroke-width="0.671741" stroke-linecap="square" stroke-dasharray="2.69 2.69"/>
<path d="M743 140.431C743 140.431 723.137 155.948 712.544 149.689C701.951 143.431 698.726 123.463 669.744 123.463C640.762 123.463 601.247 162.822 578.576 162.822C555.905 162.822 532.315 124.985 498.532 143.778C464.748 162.571 471.045 174.701 444.218 174.701C417.39 174.701 394.037 100.162 363.617 100.521C340.935 100.521 332.229 171.287 324.666 182.266C317.104 193.245 295.973 162.822 258.634 162.822C225.676 162.822 194.422 104.25 162.422 104.25C130.423 104.25 117.424 166.365 89.0348 166.365C60.6459 166.365 61.0658 143.778 38.51 143.778" stroke="#0047FF" stroke-width="1.34348"/>
<path opacity="0.15" d="M743.08 140.431C743.08 140.431 723.217 155.948 712.623 149.689C702.03 143.431 698.806 123.463 669.824 123.463C640.842 123.463 601.327 162.822 578.656 162.822C555.985 162.822 532.395 124.985 498.611 143.778C464.827 162.571 471.125 174.701 444.297 174.701C417.47 174.701 394.116 100.162 363.696 100.521C341.015 100.521 332.308 171.287 324.746 182.266C317.184 193.245 296.053 162.822 258.713 162.822C225.756 162.822 194.502 104.25 162.502 104.25C130.503 104.25 117.503 166.365 89.1145 166.365C60.7256 166.365 61.1454 143.778 38.5897 143.778C38.4296 182.635 38.5897 203.149 38.5897 203.149H743.08V140.431Z" fill="url(#paint0_linear)"/>
<path opacity="0.2" d="M38.5098 158.689C38.5098 158.689 55.6391 159.036 66.2322 152.777C76.8252 146.519 116.707 109.521 145.689 109.521C174.671 109.521 187.232 139.319 209.903 139.319C232.575 139.319 250.103 133.984 283.887 152.777C317.67 171.57 311.373 183.701 338.2 183.701C365.028 183.701 378.665 81.3526 409.085 81.7121C431.767 81.7121 452.646 141.799 460.208 152.777C467.77 163.756 492.832 189.343 525.789 189.343C558.747 189.343 587.996 113.25 619.996 113.25C651.995 113.25 664.994 175.365 693.383 175.365C721.772 175.365 721.352 152.777 743.908 152.777C744.092 177.227 743.908 202.388 743.908 202.388H38.5098V158.689Z" fill="url(#paint1_linear)"/>
<path d="M38.5117 158.018C38.5117 158.018 55.6411 158.364 66.2341 152.106C76.8272 145.847 116.709 108.849 145.691 108.849C174.673 108.849 187.234 138.647 209.905 138.647C232.577 138.647 250.105 133.313 283.889 152.106C317.672 170.899 311.375 183.029 338.202 183.029C365.03 183.029 378.667 80.6808 409.087 81.0403C431.769 81.0403 452.648 141.127 460.21 152.106C467.772 163.084 492.834 188.671 525.791 188.671C558.749 188.671 587.998 112.578 619.998 112.578C651.997 112.578 664.996 174.693 693.385 174.693C721.774 174.693 721.354 152.106 743.91 152.106" stroke="#00FF29" stroke-width="1.34348"/>
<g filter="url(#filter1_d)">
<path d="M419.387 92.4589C422.726 92.4589 425.433 89.7521 425.433 86.4132C425.433 83.0743 422.726 80.3676 419.387 80.3676C416.048 80.3676 413.341 83.0743 413.341 86.4132C413.341 89.7521 416.048 92.4589 419.387 92.4589Z" fill="white"/>
</g>
<path opacity="0.544922" d="M419.387 92.4589C422.726 92.4589 425.433 89.7521 425.433 86.4132C425.433 83.0743 422.726 80.3676 419.387 80.3676C416.048 80.3676 413.341 83.0743 413.341 86.4132C413.341 89.7521 416.048 92.4589 419.387 92.4589Z" fill="#00FF29"/>
<path d="M419.388 89.772C421.243 89.772 422.747 88.2682 422.747 86.4133C422.747 84.5583 421.243 83.0546 419.388 83.0546C417.533 83.0546 416.029 84.5583 416.029 86.4133C416.029 88.2682 417.533 89.772 419.388 89.772Z" fill="#00FF29"/>
<defs>
<filter id="filter0_ii" x="-2" y="-2" width="775" height="233" filterUnits="userSpaceOnUse" color-interpolation-filters="sRGB">
<feFlood flood-opacity="0" result="BackgroundImageFix"/>
<feBlend mode="normal" in="SourceGraphic" in2="BackgroundImageFix" result="shape"/>
<feColorMatrix in="SourceAlpha" type="matrix" values="0 0 0 0 0 0 0 0 0 0 0 0 0 0 0 0 0 0 127 0" result="hardAlpha"/>
<feOffset dx="3" dy="3"/>
<feGaussianBlur stdDeviation="1.5"/>
<feComposite in2="hardAlpha" operator="arithmetic" k2="-1" k3="1"/>
<feColorMatrix type="matrix" values="0 0 0 0 0 0 0 0 0 0 0 0 0 0 0 0 0 0 0.3 0"/>
<feBlend mode="normal" in2="shape" result="effect1_innerShadow"/>
<feColorMatrix in="SourceAlpha" type="matrix" values="0 0 0 0 0 0 0 0 0 0 0 0 0 0 0 0 0 0 127 0" result="hardAlpha"/>
<feOffset dx="-3" dy="-3"/>
<feGaussianBlur stdDeviation="1"/>
<feComposite in2="hardAlpha" operator="arithmetic" k2="-1" k3="1"/>
<feColorMatrix type="matrix" values="0 0 0 0 1 0 0 0 0 1 0 0 0 0 1 0 0 0 1 0"/>
<feBlend mode="normal" in2="effect1_innerShadow" result="effect2_innerShadow"/>
</filter>
<filter id="filter1_d" x="409.311" y="77.6806" width="20.1522" height="20.1522" filterUnits="userSpaceOnUse" color-interpolation-filters="sRGB">
<feFlood flood-opacity="0" result="BackgroundImageFix"/>
<feColorMatrix in="SourceAlpha" type="matrix" values="0 0 0 0 0 0 0 0 0 0 0 0 0 0 0 0 0 0 127 0"/>
<feOffset dy="1.34348"/>
<feGaussianBlur stdDeviation="2.01522"/>
<feColorMatrix type="matrix" values="0 0 0 0 0 0 0 0 0 0 0 0 0 0 0 0 0 0 0.127123 0"/>
<feBlend mode="normal" in2="BackgroundImageFix" result="effect1_dropShadow"/>
<feBlend mode="normal" in="SourceGraphic" in2="effect1_dropShadow" result="shape"/>
</filter>
<linearGradient id="paint0_linear" x1="1077.64" y1="3.05425" x2="1077.64" y2="203.149" gradientUnits="userSpaceOnUse">
<stop stop-color="#4D7CFE"/>
<stop offset="1" stop-color="white"/>
</linearGradient>
<linearGradient id="paint1_linear" x1="-141.033" y1="20.2879" x2="-141.033" y2="202.388" gradientUnits="userSpaceOnUse">
<stop stop-color="#00FF29"/>
<stop offset="0.708333" stop-color="white"/>
</linearGradient>
</defs>
</svg>
