<svg width="140" height="30" viewBox="0 0 140 30" fill="none" xmlns="http://www.w3.org/2000/svg">
<path d="M39.536 21V9.576H42.872V11.304C43.56 9.928 44.688 9.24 46.256 9.24C47.92 9.24 49.08 9.904 49.736 11.232C50.648 9.904 51.864 9.24 53.384 9.24C54.488 9.24 55.4 9.576 56.12 10.248C56.84 10.92 57.2 11.872 57.2 13.104V21H53.744V14.136C53.744 13.432 53.592 12.912 53.288 12.576C53 12.24 52.624 12.072 52.16 12.072C51.568 12.072 51.072 12.328 50.672 12.84C50.288 13.352 50.096 14.112 50.096 15.12V21H46.64V14.16C46.64 12.768 46.104 12.072 45.032 12.072C44.472 12.072 43.992 12.336 43.592 12.864C43.192 13.376 42.992 14.128 42.992 15.12V21H39.536ZM59.8484 5.904C59.8484 5.296 60.0404 4.808 60.4244 4.44C60.8084 4.056 61.3044 3.864 61.9124 3.864C62.5204 3.864 63.0164 4.056 63.4004 4.44C63.7844 4.808 63.9764 5.296 63.9764 5.904C63.9764 6.48 63.7844 6.96 63.4004 7.344C63.0324 7.712 62.5364 7.896 61.9124 7.896C61.2884 7.896 60.7844 7.712 60.4004 7.344C60.0324 6.96 59.8484 6.48 59.8484 5.904ZM60.1844 21V9.576H63.6404V21H60.1844ZM66.0035 15.288C66.0035 13.432 66.5475 11.96 67.6355 10.872C68.7235 9.784 70.1635 9.24 71.9555 9.24C74.3395 9.24 75.9955 10.336 76.9235 12.528L73.8035 13.68C73.5315 12.496 72.8675 11.904 71.8115 11.904C71.0275 11.904 70.4515 12.232 70.0835 12.888C69.7155 13.544 69.5315 14.344 69.5315 15.288C69.5315 16.2 69.7075 16.992 70.0595 17.664C70.4275 18.32 71.0195 18.648 71.8355 18.648C72.7315 18.648 73.3795 18.112 73.7795 17.04L76.9715 18.24C76.4435 19.2 75.7795 19.96 74.9795 20.52C74.1955 21.064 73.1635 21.336 71.8835 21.336C70.1075 21.336 68.6835 20.8 67.6115 19.728C66.5395 18.656 66.0035 17.176 66.0035 15.288ZM87.2111 9.504L86.5871 12.672C86.2511 12.416 85.7951 12.288 85.2191 12.288C84.5311 12.288 83.9071 12.56 83.3471 13.104C82.8031 13.632 82.5311 14.488 82.5311 15.672V21H79.0751V9.576H82.3151V11.496C83.0031 9.992 84.1471 9.24 85.7471 9.24C86.3071 9.24 86.7951 9.328 87.2111 9.504ZM93.8696 9.24C95.6776 9.24 97.1256 9.784 98.2136 10.872C99.3016 11.96 99.8456 13.432 99.8456 15.288C99.8456 17.144 99.3016 18.616 98.2136 19.704C97.1256 20.792 95.6776 21.336 93.8696 21.336C92.0776 21.336 90.6376 20.792 89.5496 19.704C88.4616 18.616 87.9176 17.144 87.9176 15.288C87.9176 13.432 88.4616 11.96 89.5496 10.872C90.6376 9.784 92.0776 9.24 93.8696 9.24ZM93.8696 18.744C94.7016 18.744 95.3176 18.432 95.7176 17.808C96.1336 17.168 96.3416 16.328 96.3416 15.288C96.3416 14.248 96.1336 13.416 95.7176 12.792C95.3176 12.152 94.7016 11.832 93.8696 11.832C93.0536 11.832 92.4376 12.152 92.0216 12.792C91.6216 13.432 91.4216 14.264 91.4216 15.288C91.4216 16.312 91.6216 17.144 92.0216 17.784C92.4376 18.424 93.0536 18.744 93.8696 18.744ZM110.944 4.2L116.992 21H113.272L111.928 17.112H105.904L104.56 21H101.032L107.08 4.2H110.944ZM108.928 8.136H108.88L106.888 14.256H110.944C109.792 10.896 109.12 8.856 108.928 8.136ZM125.471 15.096H122.663V21H119.087V4.2H125.471C127.551 4.2 129.175 4.64 130.343 5.52C131.527 6.4 132.119 7.744 132.119 9.552C132.119 11.392 131.519 12.776 130.319 13.704C129.119 14.632 127.503 15.096 125.471 15.096ZM128.447 9.552C128.447 8.672 128.183 8.056 127.655 7.704C127.127 7.352 126.279 7.176 125.111 7.176H122.663V12.12H125.111C126.247 12.12 127.087 11.92 127.631 11.52C128.175 11.104 128.447 10.448 128.447 9.552ZM133.981 5.904C133.981 5.296 134.173 4.808 134.557 4.44C134.941 4.056 135.437 3.864 136.045 3.864C136.653 3.864 137.149 4.056 137.533 4.44C137.917 4.808 138.109 5.296 138.109 5.904C138.109 6.48 137.917 6.96 137.533 7.344C137.165 7.712 136.669 7.896 136.045 7.896C135.421 7.896 134.917 7.712 134.533 7.344C134.165 6.96 133.981 6.48 133.981 5.904ZM134.317 21V9.576H137.773V21H134.317Z" fill="black"/>
<g clip-path="url(#clip0)">
<path d="M15.5 2.5L2.58337 8.75L15.5 15L28.4167 8.75L15.5 2.5Z" stroke="black" stroke-width="3" stroke-linecap="square"/>
<path d="M2.58337 21.25L15.5 27.5L28.4167 21.25" stroke="#58BF8E" stroke-width="3" stroke-linecap="square" stroke-linejoin="round"/>
<path d="M2.58337 15L15.5 21.25L28.4167 15" stroke="#58BF8E" stroke-width="3" stroke-linecap="square" stroke-linejoin="round"/>
</g>
<defs>
<clipPath id="clip0">
<rect width="31" height="30" fill="white"/>
</clipPath>
</defs>
</svg>
