<svg width="111" height="67" viewBox="0 0 111 67" fill="none" xmlns="http://www.w3.org/2000/svg">
<path d="M25.9911 17.3319H46.7667V18.9832H27.8956V31.4112H45.6414V33.0625H27.8956V46.7072H46.9832V48.3585H25.9911V17.3319ZM48.6279 17.3319H50.8353L60.6171 30.9767L70.6154 17.3319L84.2147 0L61.8723 32.4107L73.3855 48.3585H71.0915L60.6171 33.8447L50.0995 48.3585H47.8488L59.4485 32.4107L48.6279 17.3319ZM74.2078 18.9832V17.3319H97.8834V18.9832H86.9762V48.3585H85.0718V18.9832H74.2078ZM0 17.3319H2.38054L35.2068 66.4533L21.6413 48.3585L1.991 19.6785L1.90443 48.3585H0V17.3319ZM97.6915 46.2089C97.3024 46.2089 97.0106 45.9074 97.0106 45.5178C97.0106 45.1283 97.3024 44.8268 97.6915 44.8268C98.0852 44.8268 98.3724 45.1283 98.3724 45.5178C98.3724 45.9074 98.0852 46.2089 97.6915 46.2089ZM99.5628 44.3908H100.582C100.596 44.9427 100.999 45.3138 101.592 45.3138C102.254 45.3138 102.629 44.9149 102.629 44.1682V39.4374H103.667V44.1728C103.667 45.5178 102.889 46.2924 101.601 46.2924C100.392 46.2924 99.5628 45.541 99.5628 44.3908ZM105.024 44.3305H106.052C106.14 44.9659 106.761 45.3694 107.655 45.3694C108.489 45.3694 109.1 44.9381 109.1 44.3444C109.1 43.8342 108.711 43.5281 107.826 43.3194L106.965 43.1107C105.756 42.8278 105.205 42.2434 105.205 41.2601C105.205 40.0681 106.177 39.275 107.636 39.275C108.994 39.275 109.985 40.0681 110.045 41.1952H109.035C108.938 40.5783 108.401 40.1934 107.623 40.1934C106.803 40.1934 106.256 40.5876 106.256 41.1905C106.256 41.6683 106.608 41.9419 107.479 42.146L108.215 42.3269C109.587 42.6469 110.152 43.2035 110.152 44.2099C110.152 45.49 109.16 46.2924 107.576 46.2924C106.094 46.2924 105.098 45.5271 105.024 44.3305Z" fill="#5E5E66"/>
</svg>
