<svg width="201" height="173" viewBox="0 0 201 173" fill="none" xmlns="http://www.w3.org/2000/svg">
<path fill-rule="evenodd" clip-rule="evenodd" d="M99.9012 145.571C139.782 145.571 172.369 112.984 172.369 73.1034C172.369 32.5872 139.782 0 99.9012 0C59.385 0 26.7979 32.5872 26.7979 73.1034C26.7979 112.984 59.385 145.571 99.9012 145.571Z" fill="#58BF8E"/>
<mask id="mask0" mask-type="alpha" maskUnits="userSpaceOnUse" x="26" y="0" width="147" height="146">
<path fill-rule="evenodd" clip-rule="evenodd" d="M99.9012 145.571C139.782 145.571 172.369 112.984 172.369 73.1034C172.369 32.5872 139.782 0 99.9012 0C59.385 0 26.7979 32.5872 26.7979 73.1034C26.7979 112.984 59.385 145.571 99.9012 145.571Z" fill="white"/>
</mask>
<g mask="url(#mask0)">
</g>
<path fill-rule="evenodd" clip-rule="evenodd" d="M111.344 53.2622L97.3717 71.9164L20.1954 54.6712C15.5958 74.7334 18.7923 96.512 30.8488 115.077C36.3949 123.618 43.3246 130.722 51.1576 136.289C51.3539 136.428 51.5507 136.567 51.7482 136.705L101.227 71.0439C101.227 71.0439 105.263 63.4743 111.344 53.2622Z" fill="#0F52FF"/>
<path fill-rule="evenodd" clip-rule="evenodd" d="M55.0624 132.143C78.9041 150.214 112.639 152.317 139.389 134.945C173.416 112.848 183.253 67.6079 161.362 33.8983C156.495 26.4042 150.47 20.1109 143.668 15.0976L99.6441 73.9538L55.0624 132.143Z" fill="#4E4E4E"/>
<path fill-rule="evenodd" clip-rule="evenodd" d="M82.2363 144.81C87.9328 146.213 93.8947 146.957 100.038 146.957C140.225 146.957 173.063 114.06 173.063 73.7996C173.063 32.8975 140.225 0 100.038 0C99.6563 0 99.2758 0.00286836 98.8959 0.0085848L100.037 73.4787L82.2363 144.81Z" fill="#21D184"/>
<path d="M149.25 75.0352C149.909 75.0352 150.451 75.2421 150.877 75.6559C151.303 76.0634 151.517 76.5931 151.517 77.2451C151.517 77.8971 151.303 78.43 150.877 78.8438C150.451 79.2575 149.909 79.4644 149.25 79.4644C148.586 79.4644 148.04 79.2575 147.614 78.8438C147.194 78.43 146.984 77.8971 146.984 77.2451C146.984 76.7373 147.116 76.2985 147.379 75.9286L149.495 72.7595H150.492L148.94 75.054C149.078 75.0415 149.181 75.0352 149.25 75.0352ZM148.235 78.2513C148.498 78.5021 148.837 78.6275 149.25 78.6275C149.664 78.6275 149.999 78.5021 150.257 78.2513C150.52 77.9943 150.651 77.6589 150.651 77.2451C150.651 76.8313 150.52 76.4991 150.257 76.2483C149.999 75.9975 149.664 75.8722 149.25 75.8722C148.83 75.8722 148.492 75.9975 148.235 76.2483C147.978 76.4991 147.849 76.8313 147.849 77.2451C147.849 77.6589 147.978 77.9943 148.235 78.2513ZM156.614 78.5334C156.169 79.1541 155.545 79.4644 154.743 79.4644C153.941 79.4644 153.317 79.1541 152.872 78.5334C152.426 77.9128 152.204 77.0852 152.204 76.0508C152.204 75.0164 152.426 74.1889 152.872 73.5682C153.317 72.9476 153.941 72.6372 154.743 72.6372C155.545 72.6372 156.169 72.9476 156.614 73.5682C157.059 74.1889 157.282 75.0164 157.282 76.0508C157.282 77.0852 157.059 77.9128 156.614 78.5334ZM153.511 77.941C153.799 78.3861 154.21 78.6087 154.743 78.6087C155.276 78.6087 155.686 78.3861 155.975 77.941C156.27 77.4959 156.417 76.8658 156.417 76.0508C156.417 75.2358 156.27 74.6058 155.975 74.1607C155.686 73.7093 155.276 73.4836 154.743 73.4836C154.21 73.4836 153.799 73.7061 153.511 74.1513C153.223 74.5964 153.078 75.2296 153.078 76.0508C153.078 76.8658 153.223 77.4959 153.511 77.941ZM159.523 75.5524C159.097 75.5524 158.743 75.4114 158.461 75.1293C158.179 74.8471 158.038 74.5023 158.038 74.0948C158.038 73.6936 158.179 73.3519 158.461 73.0698C158.749 72.7814 159.103 72.6372 159.523 72.6372C159.95 72.6372 160.304 72.7783 160.586 73.0604C160.868 73.3425 161.009 73.6873 161.009 74.0948C161.009 74.5023 160.868 74.8471 160.586 75.1293C160.31 75.4114 159.956 75.5524 159.523 75.5524ZM158.978 74.6497C159.122 74.7939 159.304 74.8659 159.523 74.8659C159.743 74.8659 159.922 74.7907 160.059 74.6403C160.204 74.4898 160.276 74.308 160.276 74.0948C160.276 73.8817 160.204 73.703 160.059 73.5588C159.922 73.4084 159.743 73.3331 159.523 73.3331C159.304 73.3331 159.122 73.4084 158.978 73.5588C158.84 73.703 158.771 73.8817 158.771 74.0948C158.771 74.3143 158.84 74.4992 158.978 74.6497ZM158.48 78.4112L162.852 73.5212L163.313 73.7751L158.931 78.6745L158.48 78.4112ZM163.426 79.0318C163.144 79.314 162.79 79.455 162.363 79.455C161.937 79.455 161.583 79.314 161.301 79.0318C161.019 78.7497 160.878 78.4049 160.878 77.9974C160.878 77.5899 161.019 77.2451 161.301 76.963C161.583 76.6809 161.937 76.5398 162.363 76.5398C162.79 76.5398 163.144 76.6809 163.426 76.963C163.708 77.2451 163.849 77.5899 163.849 77.9974C163.849 78.4049 163.708 78.7497 163.426 79.0318ZM161.818 78.5428C161.962 78.687 162.144 78.7591 162.363 78.7591C162.583 78.7591 162.761 78.687 162.899 78.5428C163.044 78.3924 163.116 78.2106 163.116 77.9974C163.116 77.7843 163.044 77.6056 162.899 77.4614C162.761 77.3109 162.583 77.2357 162.363 77.2357C162.144 77.2357 161.962 77.3109 161.818 77.4614C161.68 77.6056 161.611 77.7843 161.611 77.9974C161.611 78.2106 161.68 78.3924 161.818 78.5428Z" fill="white"/>
<path d="M55.5573 29.432V28.7173L57.88 26.3476C58.5007 25.7269 58.811 25.194 58.811 24.7489C58.811 24.379 58.6982 24.0906 58.4725 23.8838C58.2468 23.6769 57.9709 23.5734 57.6449 23.5734C57.0243 23.5734 56.5729 23.8681 56.2908 24.4574L55.5573 24.0248C55.7642 23.5985 56.0494 23.2756 56.413 23.0562C56.7829 22.8368 57.1904 22.7271 57.6355 22.7271C58.1872 22.7271 58.6668 22.9089 59.0743 23.2725C59.4818 23.6361 59.6856 24.1251 59.6856 24.7395C59.6856 25.404 59.2937 26.1281 58.5101 26.9118L56.8268 28.5857H59.8078V29.432H55.5573ZM64.9195 28.6233C64.4744 29.2439 63.8506 29.5543 63.0482 29.5543C62.2457 29.5543 61.6219 29.2439 61.1768 28.6233C60.7317 28.0026 60.5091 27.1751 60.5091 26.1407C60.5091 25.1063 60.7317 24.2787 61.1768 23.6581C61.6219 23.0374 62.2457 22.7271 63.0482 22.7271C63.8506 22.7271 64.4744 23.0374 64.9195 23.6581C65.3646 24.2787 65.5872 25.1063 65.5872 26.1407C65.5872 27.1751 65.3646 28.0026 64.9195 28.6233ZM61.8163 28.0308C62.1046 28.476 62.5153 28.6985 63.0482 28.6985C63.581 28.6985 63.9917 28.476 64.2801 28.0308C64.5747 27.5857 64.722 26.9557 64.722 26.1407C64.722 25.3257 64.5747 24.6956 64.2801 24.2505C63.9917 23.7991 63.581 23.5734 63.0482 23.5734C62.5153 23.5734 62.1046 23.796 61.8163 24.2411C61.5279 24.6862 61.3837 25.3194 61.3837 26.1407C61.3837 26.9557 61.5279 27.5857 61.8163 28.0308ZM67.8286 25.6423C67.4023 25.6423 67.0481 25.5012 66.766 25.2191C66.4839 24.937 66.3428 24.5922 66.3428 24.1847C66.3428 23.7834 66.4839 23.4418 66.766 23.1597C67.0544 22.8713 67.4086 22.7271 67.8286 22.7271C68.2549 22.7271 68.6091 22.8681 68.8912 23.1503C69.1733 23.4324 69.3144 23.7772 69.3144 24.1847C69.3144 24.5922 69.1733 24.937 68.8912 25.2191C68.6154 25.5012 68.2612 25.6423 67.8286 25.6423ZM67.2832 24.7395C67.4274 24.8837 67.6092 24.9558 67.8286 24.9558C68.048 24.9558 68.2267 24.8806 68.3646 24.7301C68.5088 24.5796 68.5809 24.3978 68.5809 24.1847C68.5809 23.9715 68.5088 23.7929 68.3646 23.6487C68.2267 23.4982 68.048 23.423 67.8286 23.423C67.6092 23.423 67.4274 23.4982 67.2832 23.6487C67.1453 23.7929 67.0763 23.9715 67.0763 24.1847C67.0763 24.4041 67.1453 24.589 67.2832 24.7395ZM66.7848 28.501L71.1576 23.611L71.6183 23.8649L67.2362 28.7643L66.7848 28.501ZM71.7312 29.1217C71.4491 29.4038 71.0949 29.5449 70.6686 29.5449C70.2422 29.5449 69.888 29.4038 69.6059 29.1217C69.3238 28.8396 69.1828 28.4948 69.1828 28.0873C69.1828 27.6798 69.3238 27.335 69.6059 27.0528C69.888 26.7707 70.2422 26.6297 70.6686 26.6297C71.0949 26.6297 71.4491 26.7707 71.7312 27.0528C72.0133 27.335 72.1544 27.6798 72.1544 28.0873C72.1544 28.4948 72.0133 28.8396 71.7312 29.1217ZM70.1231 28.6327C70.2673 28.7769 70.4491 28.849 70.6686 28.849C70.888 28.849 71.0666 28.7769 71.2046 28.6327C71.3488 28.4822 71.4209 28.3004 71.4209 28.0873C71.4209 27.8741 71.3488 27.6954 71.2046 27.5512C71.0666 27.4008 70.888 27.3256 70.6686 27.3256C70.4491 27.3256 70.2673 27.4008 70.1231 27.5512C69.9852 27.6954 69.9162 27.8741 69.9162 28.0873C69.9162 28.3004 69.9852 28.4822 70.1231 28.6327Z" fill="white"/>
<path d="M34.8986 87.3166H35.6509V93.8993H34.7857V88.257L33.3846 88.6708L33.1683 87.9185L34.8986 87.3166ZM38.9182 89.5923C39.5765 89.5923 40.1187 89.7992 40.5451 90.213C40.9714 90.6205 41.1845 91.1502 41.1845 91.8022C41.1845 92.4542 40.9714 92.9871 40.5451 93.4009C40.1187 93.8147 39.5765 94.0215 38.9182 94.0215C38.2537 94.0215 37.7082 93.8147 37.2819 93.4009C36.8619 92.9871 36.6519 92.4542 36.6519 91.8022C36.6519 91.2944 36.7835 90.8556 37.0468 90.4857L39.1627 87.3166H40.1595L38.6079 89.6112C38.7458 89.5986 38.8492 89.5923 38.9182 89.5923ZM37.9026 92.8084C38.1659 93.0592 38.5044 93.1846 38.9182 93.1846C39.332 93.1846 39.6674 93.0592 39.9244 92.8084C40.1877 92.5514 40.3194 92.216 40.3194 91.8022C40.3194 91.3885 40.1877 91.0562 39.9244 90.8054C39.6674 90.5547 39.332 90.4293 38.9182 90.4293C38.4982 90.4293 38.1596 90.5547 37.9026 90.8054C37.6455 91.0562 37.517 91.3885 37.517 91.8022C37.517 92.216 37.6455 92.5514 37.9026 92.8084ZM43.167 90.1096C42.7406 90.1096 42.3864 89.9685 42.1043 89.6864C41.8222 89.4043 41.6812 89.0595 41.6812 88.652C41.6812 88.2507 41.8222 87.9091 42.1043 87.6269C42.3927 87.3386 42.7469 87.1944 43.167 87.1944C43.5933 87.1944 43.9475 87.3354 44.2296 87.6175C44.5117 87.8997 44.6528 88.2445 44.6528 88.652C44.6528 89.0595 44.5117 89.4043 44.2296 89.6864C43.9537 89.9685 43.5995 90.1096 43.167 90.1096ZM42.6215 89.2068C42.7657 89.351 42.9475 89.4231 43.167 89.4231C43.3864 89.4231 43.565 89.3478 43.703 89.1974C43.8472 89.0469 43.9193 88.8651 43.9193 88.652C43.9193 88.4388 43.8472 88.2601 43.703 88.1159C43.565 87.9655 43.3864 87.8903 43.167 87.8903C42.9475 87.8903 42.7657 87.9655 42.6215 88.1159C42.4836 88.2601 42.4146 88.4388 42.4146 88.652C42.4146 88.8714 42.4836 89.0563 42.6215 89.2068ZM42.1231 92.9683L46.4959 88.0783L46.9567 88.3322L42.5745 93.2316L42.1231 92.9683ZM47.0695 93.589C46.7874 93.8711 46.4332 94.0121 46.0069 94.0121C45.5806 94.0121 45.2264 93.8711 44.9443 93.589C44.6622 93.3069 44.5211 92.962 44.5211 92.5545C44.5211 92.147 44.6622 91.8022 44.9443 91.5201C45.2264 91.238 45.5806 91.097 46.0069 91.097C46.4332 91.097 46.7874 91.238 47.0695 91.5201C47.3516 91.8022 47.4927 92.147 47.4927 92.5545C47.4927 92.962 47.3516 93.3069 47.0695 93.589ZM45.4615 93.1C45.6057 93.2442 45.7875 93.3163 46.0069 93.3163C46.2263 93.3163 46.405 93.2442 46.5429 93.1C46.6871 92.9495 46.7592 92.7677 46.7592 92.5545C46.7592 92.3414 46.6871 92.1627 46.5429 92.0185C46.405 91.8681 46.2263 91.7928 46.0069 91.7928C45.7875 91.7928 45.6057 91.8681 45.4615 92.0185C45.3236 92.1627 45.2546 92.3414 45.2546 92.5545C45.2546 92.7677 45.3236 92.9495 45.4615 93.1Z" fill="white"/>
<path d="M74.3397 124.411V125.229H73.5404V126.479H72.6659V125.229H69.3087V124.411L71.6691 119.897H72.6094L70.2491 124.411H72.6659V122.549H73.5404V124.411H74.3397ZM76.0726 122.69C75.6463 122.69 75.2921 122.549 75.01 122.266C74.7279 121.984 74.5868 121.64 74.5868 121.232C74.5868 120.831 74.7279 120.489 75.01 120.207C75.2984 119.919 75.6526 119.774 76.0726 119.774C76.4989 119.774 76.8531 119.916 77.1352 120.198C77.4174 120.48 77.5584 120.825 77.5584 121.232C77.5584 121.64 77.4174 121.984 77.1352 122.266C76.8594 122.549 76.5052 122.69 76.0726 122.69ZM75.5272 121.787C75.6714 121.931 75.8532 122.003 76.0726 122.003C76.292 122.003 76.4707 121.928 76.6086 121.777C76.7528 121.627 76.8249 121.445 76.8249 121.232C76.8249 121.019 76.7528 120.84 76.6086 120.696C76.4707 120.546 76.292 120.47 76.0726 120.47C75.8532 120.47 75.6714 120.546 75.5272 120.696C75.3893 120.84 75.3203 121.019 75.3203 121.232C75.3203 121.451 75.3893 121.636 75.5272 121.787ZM75.0288 125.548L79.4016 120.658L79.8623 120.912L75.4802 125.812L75.0288 125.548ZM79.9752 126.169C79.6931 126.451 79.3389 126.592 78.9126 126.592C78.4863 126.592 78.132 126.451 77.8499 126.169C77.5678 125.887 77.4268 125.542 77.4268 125.135C77.4268 124.727 77.5678 124.382 77.8499 124.1C78.132 123.818 78.4863 123.677 78.9126 123.677C79.3389 123.677 79.6931 123.818 79.9752 124.1C80.2573 124.382 80.3984 124.727 80.3984 125.135C80.3984 125.542 80.2573 125.887 79.9752 126.169ZM78.3671 125.68C78.5113 125.824 78.6931 125.896 78.9126 125.896C79.132 125.896 79.3107 125.824 79.4486 125.68C79.5928 125.53 79.6649 125.348 79.6649 125.135C79.6649 124.921 79.5928 124.743 79.4486 124.599C79.3107 124.448 79.132 124.373 78.9126 124.373C78.6931 124.373 78.5113 124.448 78.3671 124.599C78.2292 124.743 78.1603 124.921 78.1603 125.135C78.1603 125.348 78.2292 125.53 78.3671 125.68Z" fill="white"/>
<path fill-rule="evenodd" clip-rule="evenodd" d="M99.5314 114.585C122.645 114.585 141.383 95.8472 141.383 72.7331C141.383 49.6191 122.645 30.8815 99.5314 30.8815C76.4173 30.8815 57.6797 49.6191 57.6797 72.7331C57.6797 95.8472 76.4173 114.585 99.5314 114.585Z" fill="#E9E9E9"/>
</svg>
