<svg width="49" height="44" viewBox="0 0 49 44" fill="none" xmlns="http://www.w3.org/2000/svg">
<g clip-path="url(#clip0)">
<path d="M0.911133 21.9519C0.911133 25.6278 4.42905 29.0592 9.97507 30.9935C8.86755 36.6823 9.7767 41.2677 12.8129 43.0543C15.9338 44.8908 20.5832 43.6196 24.9962 39.6835C29.2978 43.4606 33.6452 44.947 36.6788 43.1553C39.7968 41.3136 40.745 36.4173 39.6069 30.5508C45.3835 28.6022 48.6148 25.6762 48.6148 21.9519C48.6148 18.3613 45.0905 15.2551 39.6191 13.3332C40.8443 7.2243 39.8062 2.75026 36.6441 0.889828C33.5957 -0.903841 29.1977 0.659498 24.8329 4.53532C20.2918 0.421515 15.9373 -0.834398 12.7786 1.0312C9.73302 2.83004 8.86399 7.49882 9.97507 13.2929C4.61617 15.1992 0.911133 18.3758 0.911133 21.9519Z" fill="white"/>
<path d="M38.4601 15.2418C38.0092 15.084 37.5544 14.9378 37.0963 14.8033C37.1723 14.4883 37.2425 14.1719 37.307 13.8543C38.3394 8.74108 37.6644 4.62191 35.3594 3.26595C33.1494 1.96546 29.5349 3.32142 25.8845 6.5627C25.5247 6.88281 25.173 7.21215 24.8296 7.5504C24.5997 7.32549 24.3656 7.10494 24.1277 6.88887C20.3019 3.42282 16.4671 1.9624 14.1645 3.32238C11.9566 4.6265 11.3026 8.49908 12.232 13.3448C12.3245 13.8247 12.4289 14.3021 12.5451 14.7765C12.0025 14.9338 11.4785 15.1014 10.9771 15.2797C6.49195 16.8752 3.62744 19.3759 3.62744 21.9696C3.62744 24.6486 6.70231 27.3357 11.3742 28.9648C11.7531 29.0963 12.135 29.2181 12.5198 29.3302C12.3948 29.8414 12.2838 30.356 12.187 30.8735C11.3009 35.635 11.993 39.4158 14.1951 40.7119C16.4695 42.05 20.2869 40.6746 24.0041 37.3593C24.2979 37.0972 24.5928 36.8192 24.8881 36.5279C25.2601 36.894 25.642 37.2495 26.0333 37.594C29.6339 40.7553 33.1899 42.0319 35.3901 40.7323C37.6625 39.3901 38.4009 35.3286 37.442 30.387C37.3689 30.0095 37.2836 29.6241 37.188 29.2315C37.4561 29.1508 37.7191 29.0674 37.9758 28.9805C42.8326 27.3387 45.9924 24.6844 45.9924 21.9696C45.9924 19.3665 43.0357 16.8489 38.4601 15.2418Z" fill="#5E5E66"/>
<path d="M37.4065 27.2278C37.1749 27.306 36.9372 27.3816 36.695 27.4549C36.1587 25.723 35.435 23.8813 34.5497 21.9788C35.3947 20.1212 36.0903 18.3032 36.6115 16.5825C37.0448 16.7106 37.4655 16.8455 37.8709 16.988C41.7914 18.3648 44.1826 20.4009 44.1826 21.9696C44.1826 23.6406 41.5999 25.81 37.4067 27.2278H37.4065ZM35.6666 30.7457C36.0905 32.9307 36.151 34.9064 35.8702 36.4508C35.6178 37.8385 35.1105 38.7636 34.4831 39.1342C33.148 39.9227 30.2927 38.8977 27.2137 36.1942C26.8606 35.8843 26.5049 35.5533 26.1483 35.2033C27.3421 33.871 28.5351 32.3222 29.6994 30.6024C31.7476 30.417 33.6825 30.1138 35.4373 29.7C35.5235 30.0558 35.6004 30.4046 35.6666 30.7457ZM18.0704 38.998C16.766 39.468 15.7271 39.4814 15.0992 39.112C13.7628 38.3257 13.2074 35.2897 13.9651 31.2178C14.0552 30.7366 14.1584 30.258 14.2745 29.7826C16.0097 30.1742 17.9306 30.456 19.9836 30.6259C21.1556 32.3088 22.3831 33.8557 23.6202 35.2103C23.3573 35.4698 23.0881 35.7227 22.813 35.9687C21.1693 37.4348 19.5222 38.4748 18.0706 38.998H18.0704ZM11.9595 27.2174C9.8937 26.497 8.18771 25.5608 7.01832 24.5392C5.96761 23.6209 5.43701 22.7094 5.43701 21.9696C5.43701 20.3957 7.73698 18.388 11.5729 17.0234C12.0543 16.8529 12.5406 16.6968 13.031 16.5553C13.5612 18.3147 14.2566 20.1543 15.0959 22.0145C14.2458 23.9025 13.5404 25.7714 13.0053 27.5515C12.6541 27.4489 12.3054 27.3375 11.9595 27.2174ZM14.008 12.9901C13.2118 8.83826 13.7405 5.70642 15.0711 4.92054C16.4886 4.08339 19.6225 5.27713 22.9257 8.26971C23.1368 8.46101 23.3489 8.66131 23.5613 8.86849C22.3306 10.217 21.1144 11.7522 19.9525 13.4254C17.96 13.6138 16.0526 13.9164 14.2992 14.3218C14.1912 13.8804 14.0941 13.4363 14.008 12.99V12.9901ZM32.2823 17.5943C31.8682 16.8643 31.4387 16.1436 30.9941 15.4325C32.3459 15.6066 33.6409 15.8381 34.857 16.1214C34.4919 17.3153 34.0369 18.5638 33.501 19.8436C33.1095 19.0856 32.7032 18.3357 32.2823 17.5943ZM24.8301 10.1881C25.6648 11.1108 26.5008 12.1411 27.3232 13.2589C25.655 13.1785 23.9841 13.1781 22.316 13.2578C23.1391 12.1503 23.9822 11.1215 24.8301 10.1881ZM17.33 17.6069C16.9144 18.3424 16.5157 19.0878 16.1342 19.8423C15.6072 18.5669 15.1562 17.3129 14.788 16.1019C15.9968 15.8258 17.2858 15.6003 18.6288 15.4291C18.1792 16.1445 17.7462 16.8707 17.33 17.6069ZM18.6674 28.6419C17.28 28.4839 15.9714 28.2698 14.7631 28.0014C15.1371 26.769 15.598 25.4881 16.1363 24.1853C16.5194 24.9404 16.9198 25.6861 17.3373 26.422C17.7633 27.1726 18.2068 27.9128 18.6674 28.6419ZM24.8801 33.8815C24.0224 32.9371 23.1668 31.8925 22.3312 30.769C23.1423 30.8015 23.9693 30.818 24.8098 30.818C25.6734 30.818 26.5271 30.7983 27.3672 30.76C26.5423 31.904 25.7092 32.9501 24.8801 33.8815ZM33.5183 24.1189C34.0845 25.4358 34.5619 26.7099 34.941 27.9214C33.7125 28.2074 32.3864 28.4378 30.989 28.6088C31.4368 27.8845 31.8704 27.1511 32.2896 26.4092C32.7158 25.6551 33.1254 24.8915 33.5183 24.1189ZM30.7218 25.4867C30.0801 26.6242 29.4023 27.7401 28.6894 28.8326C27.4325 28.9243 26.1335 28.9715 24.8098 28.9715C23.4916 28.9715 22.2091 28.9296 20.9741 28.8479C20.2428 27.7579 19.5521 26.6401 18.9036 25.4969C18.2582 24.3597 17.6553 23.1979 17.0962 22.014C17.6538 20.8297 18.2549 19.6673 18.8982 18.5292V18.5295C19.5413 17.3912 20.2265 16.2781 20.9524 15.1928C22.2123 15.0956 23.5041 15.0447 24.81 15.0447C26.1217 15.0447 27.4152 15.096 28.6748 15.194C29.3933 16.2776 30.0742 17.3868 30.716 18.5194C31.3615 19.655 31.9706 20.8117 32.5424 21.9878C31.9765 23.1758 31.3693 24.3428 30.722 25.4867H30.7218ZM34.4554 4.86564C35.8739 5.70049 36.4257 9.06687 35.5344 13.4816C35.476 13.7692 35.4125 14.0557 35.3439 14.3409C33.5863 13.9271 31.6777 13.6192 29.6794 13.4278C28.5152 11.7365 27.3091 10.1986 26.0983 8.86753C26.4156 8.55543 26.7404 8.25142 27.0725 7.95578C30.2002 5.17842 33.1234 4.08186 34.4554 4.86564Z" fill="white"/>
<path d="M24.8099 18.1096C26.8993 18.1096 28.5929 19.8379 28.5929 21.9696C28.5929 24.1015 26.8993 25.8297 24.8099 25.8297C22.7207 25.8297 21.0269 24.1015 21.0269 21.9696C21.0269 19.8379 22.7207 18.1096 24.8099 18.1096Z" fill="#5E5E66"/>
</g>
<defs>
<clipPath id="clip0">
<rect width="48" height="44" fill="white" transform="translate(0.769531)"/>
</clipPath>
</defs>
</svg>
