<svg width="140" height="30" viewBox="0 0 140 30" fill="none" xmlns="http://www.w3.org/2000/svg">
<path d="M52.688 10.664C54.064 10.664 55.16 11.112 55.976 12.008C56.808 12.904 57.224 14.104 57.224 15.608V23H54.128V15.824C54.128 15.104 53.952 14.544 53.6 14.144C53.248 13.744 52.752 13.544 52.112 13.544C51.408 13.544 50.856 13.776 50.456 14.24C50.072 14.704 49.88 15.376 49.88 16.256V23H46.784V15.824C46.784 15.104 46.608 14.544 46.256 14.144C45.904 13.744 45.408 13.544 44.768 13.544C44.08 13.544 43.528 13.776 43.112 14.24C42.712 14.704 42.512 15.376 42.512 16.256V23H39.416V11H42.512V12.272C43.232 11.2 44.344 10.664 45.848 10.664C47.32 10.664 48.408 11.24 49.112 12.392C49.912 11.24 51.104 10.664 52.688 10.664ZM61.3895 9.56C60.8775 9.56 60.4295 9.376 60.0455 9.008C59.6775 8.624 59.4935 8.176 59.4935 7.664C59.4935 7.152 59.6775 6.704 60.0455 6.32C60.4295 5.936 60.8775 5.744 61.3895 5.744C61.9175 5.744 62.3655 5.936 62.7335 6.32C63.1175 6.704 63.3095 7.152 63.3095 7.664C63.3095 8.176 63.1175 8.624 62.7335 9.008C62.3655 9.376 61.9175 9.56 61.3895 9.56ZM59.8535 23V11H62.9495V23H59.8535ZM71.4952 23.336C69.6872 23.336 68.1752 22.728 66.9592 21.512C65.7592 20.296 65.1592 18.792 65.1592 17C65.1592 15.208 65.7592 13.704 66.9592 12.488C68.1752 11.272 69.6872 10.664 71.4952 10.664C72.6632 10.664 73.7272 10.944 74.6872 11.504C75.6472 12.064 76.3752 12.816 76.8712 13.76L74.2072 15.32C73.9672 14.824 73.5992 14.432 73.1032 14.144C72.6232 13.856 72.0792 13.712 71.4712 13.712C70.5432 13.712 69.7752 14.024 69.1672 14.648C68.5592 15.256 68.2552 16.04 68.2552 17C68.2552 17.944 68.5592 18.728 69.1672 19.352C69.7752 19.96 70.5432 20.264 71.4712 20.264C72.0952 20.264 72.6472 20.128 73.1272 19.856C73.6232 19.568 73.9912 19.176 74.2312 18.68L76.9192 20.216C76.3912 21.16 75.6472 21.92 74.6872 22.496C73.7272 23.056 72.6632 23.336 71.4952 23.336ZM81.7464 13.064C82.0344 12.296 82.5064 11.72 83.1624 11.336C83.8344 10.952 84.5784 10.76 85.3944 10.76V14.216C84.4504 14.104 83.6024 14.296 82.8504 14.792C82.1144 15.288 81.7464 16.112 81.7464 17.264V23H78.6504V11H81.7464V13.064ZM96.9838 21.512C95.7518 22.728 94.2478 23.336 92.4718 23.336C90.6958 23.336 89.1918 22.728 87.9598 21.512C86.7438 20.28 86.1357 18.776 86.1357 17C86.1357 15.224 86.7438 13.728 87.9598 12.512C89.1918 11.28 90.6958 10.664 92.4718 10.664C94.2478 10.664 95.7518 11.28 96.9838 12.512C98.2158 13.728 98.8318 15.224 98.8318 17C98.8318 18.776 98.2158 20.28 96.9838 21.512ZM90.1438 19.376C90.7678 20 91.5438 20.312 92.4718 20.312C93.3998 20.312 94.1758 20 94.7998 19.376C95.4238 18.752 95.7358 17.96 95.7358 17C95.7358 16.04 95.4238 15.248 94.7998 14.624C94.1758 14 93.3998 13.688 92.4718 13.688C91.5438 13.688 90.7678 14 90.1438 14.624C89.5358 15.248 89.2318 16.04 89.2318 17C89.2318 17.96 89.5358 18.752 90.1438 19.376ZM111.954 23L110.946 19.976H104.25L103.242 23H99.6658L105.546 6.2H109.65L115.554 23H111.954ZM105.306 16.88H109.914L107.61 10.016L105.306 16.88ZM123.449 6.2C125.065 6.2 126.425 6.744 127.529 7.832C128.633 8.92 129.185 10.256 129.185 11.84C129.185 13.424 128.633 14.76 127.529 15.848C126.425 16.936 125.065 17.48 123.449 17.48H120.497V23H117.185V6.2H123.449ZM123.449 14.384C124.153 14.384 124.737 14.144 125.201 13.664C125.665 13.168 125.897 12.56 125.897 11.84C125.897 11.104 125.665 10.496 125.201 10.016C124.737 9.536 124.153 9.296 123.449 9.296H120.497V14.384H123.449ZM132.733 9.56C132.221 9.56 131.773 9.376 131.389 9.008C131.021 8.624 130.837 8.176 130.837 7.664C130.837 7.152 131.021 6.704 131.389 6.32C131.773 5.936 132.221 5.744 132.733 5.744C133.261 5.744 133.709 5.936 134.077 6.32C134.461 6.704 134.653 7.152 134.653 7.664C134.653 8.176 134.461 8.624 134.077 9.008C133.709 9.376 133.261 9.56 132.733 9.56ZM131.197 23V11H134.293V23H131.197Z" fill="white"/>
<g clip-path="url(#clip0)">
<path d="M15.5002 2.5L2.5835 8.75L15.5002 15L28.4168 8.75L15.5002 2.5Z" stroke="white" stroke-width="3" stroke-linecap="square"/>
<path d="M2.5835 21.25L15.5002 27.5L28.4168 21.25" stroke="#E9E7E8" stroke-width="3" stroke-linecap="square" stroke-linejoin="round"/>
<path d="M2.5835 15L15.5002 21.25L28.4168 15" stroke="#6E8B41" stroke-width="3" stroke-linecap="square" stroke-linejoin="round"/>
</g>
<defs>
<clipPath id="clip0">
<rect width="31" height="30" fill="white"/>
</clipPath>
</defs>
</svg>
